<?xml version="1.0" encoding="UTF-8" standalone="no"?>
<!-- Created with Inkscape (http://www.inkscape.org/) -->

<svg
   version="1.1"
   id="svg2"
   width="1316.9913"
   height="552.93274"
   viewBox="0 0 1316.9914 552.93274"
   sodipodi:docname="COF_LOGOS.pdf"
   inkscape:export-filename="rector-logo.svg"
   inkscape:export-xdpi="96"
   inkscape:export-ydpi="96"
   xmlns:inkscape="http://www.inkscape.org/namespaces/inkscape"
   xmlns:sodipodi="http://sodipodi.sourceforge.net/DTD/sodipodi-0.dtd"
   xmlns="http://www.w3.org/2000/svg"
   xmlns:svg="http://www.w3.org/2000/svg">
  <defs
     id="defs6">
    <clipPath
       clipPathUnits="userSpaceOnUse"
       id="clipPath16">
      <path
         d="M 0,443.288 H 1000 V 0 H 0 Z"
         id="path14" />
    </clipPath>
  </defs>
  <sodipodi:namedview
     id="namedview4"
     pagecolor="#ffffff"
     bordercolor="#999999"
     borderopacity="1"
     inkscape:showpageshadow="0"
     inkscape:pageopacity="0"
     inkscape:pagecheckerboard="0"
     inkscape:deskcolor="#d1d1d1"
     showgrid="false" />
  <g
     id="g8"
     inkscape:groupmode="layer"
     inkscape:label="COF_LOGOS"
     transform="matrix(1.3333333,0,0,-1.3333333,-8.1709325,571.99172)">
    <g
       id="g10">
      <g
         id="g12"
         clip-path="url(#clipPath16)">
        <g
           id="g18"
           transform="translate(370.129,368.3281)">
          <path
             d="m 0,0 c 1.797,-1.898 3.808,-3.438 6.033,-4.613 2.226,-1.179 4.616,-2.018 7.175,-2.513 2.556,-0.499 5.149,-0.6 7.778,-0.306 2.569,0.263 5.066,0.918 7.494,1.959 2.427,1.041 4.628,2.369 6.602,3.982 1.975,1.613 3.713,3.49 5.213,5.632 1.503,2.143 2.63,4.488 3.38,7.044 -1.635,0.628 -3.257,1.273 -4.873,1.944 -1.62,0.67 -3.257,1.349 -4.916,2.038 C 33.644,12.605 32.931,10.392 31.749,8.528 30.567,6.664 29.098,5.185 27.341,4.099 25.584,3.009 23.653,2.299 21.546,1.971 19.437,1.641 17.393,1.732 15.403,2.25 13.416,2.767 11.568,3.738 9.856,5.164 8.142,6.591 6.802,8.476 5.831,10.827 c -0.973,2.347 -1.359,4.628 -1.154,6.851 0.202,2.216 0.824,4.211 1.864,5.981 1.041,1.769 2.419,3.296 4.13,4.585 1.708,1.285 3.575,2.149 5.601,2.592 2.027,0.438 4.108,0.432 6.251,-0.018 2.143,-0.453 4.203,-1.499 6.183,-3.14 0.713,1.598 1.405,3.205 2.076,4.821 0.67,1.616 1.349,3.254 2.038,4.916 -2.338,1.273 -4.796,2.139 -7.371,2.593 C 22.872,40.46 20.322,40.546 17.8,40.261 15.275,39.977 12.786,39.344 10.334,38.364 7.879,37.384 5.651,36.08 3.646,34.458 1.579,32.805 -0.184,30.898 -1.641,28.74 -3.098,26.579 -4.197,24.298 -4.938,21.892 -5.678,19.486 -6.015,16.976 -5.948,14.365 -5.88,11.748 -5.32,9.177 -4.273,6.645 -3.223,4.111 -1.8,1.895 0,0"
             style="fill:#243241;fill-opacity:1;fill-rule:nonzero;stroke:none"
             id="path20" />
        </g>
        <g
           id="g22"
           transform="translate(432.1515,375.6804)">
          <path
             d="M 0,0 -11.858,42.512 -22.006,39.68 -10.144,-2.829 Z"
             style="fill:#243241;fill-opacity:1;fill-rule:nonzero;stroke:none"
             id="path24" />
        </g>
        <g
           id="g26"
           transform="translate(446.4068,414.9045)">
          <path
             d="m 0,0 5.647,-34.85 10.399,1.684 -5.648,34.853 14.454,2.341 -1.411,8.715 -39.309,-6.37 1.414,-8.714 z"
             style="fill:#243241;fill-opacity:1;fill-rule:nonzero;stroke:none"
             id="path28" />
        </g>
        <g
           id="g30"
           transform="translate(495.5209,384.4168)">
          <path
             d="M 0,0 10.53,0.168 10.205,20.227 27.167,44.577 14.831,44.378 4.833,29.873 -5.73,44.045 -18.767,43.834 -0.309,19.055 Z"
             style="fill:#243241;fill-opacity:1;fill-rule:nonzero;stroke:none"
             id="path32" />
        </g>
        <g
           id="g34"
           transform="translate(558.4341,401.6931)">
          <path
             d="m 0,0 c 0.465,1.95 1.283,3.716 2.452,5.293 1.166,1.576 2.538,2.846 4.111,3.811 1.57,0.964 3.324,1.61 5.259,1.937 1.934,0.325 3.878,0.257 5.828,-0.211 1.953,-0.465 3.698,-1.283 5.243,-2.439 1.543,-1.164 2.813,-2.532 3.811,-4.112 0.998,-1.579 1.66,-3.336 1.987,-5.27 0.328,-1.936 0.257,-3.879 -0.208,-5.832 -0.468,-1.95 -1.286,-3.713 -2.455,-5.29 -1.169,-1.576 -2.556,-2.843 -4.157,-3.801 -1.607,-0.956 -3.361,-1.601 -5.262,-1.938 -1.904,-0.333 -3.829,-0.269 -5.779,0.199 -1.95,0.468 -3.716,1.286 -5.293,2.455 -1.576,1.166 -2.846,2.538 -3.811,4.108 -0.964,1.573 -1.61,3.327 -1.937,5.262 C -0.539,-3.893 -0.468,-1.95 0,0 m -6.998,-15.859 c 1.794,-2.562 4.05,-4.769 6.769,-6.624 2.718,-1.852 5.702,-3.168 8.956,-3.949 3.186,-0.762 6.41,-0.934 9.676,-0.511 3.263,0.419 6.29,1.362 9.082,2.825 2.792,1.464 5.21,3.447 7.252,5.948 2.044,2.501 3.471,5.442 4.279,8.824 0.811,3.383 0.872,6.652 0.183,9.808 -0.688,3.156 -1.94,6.033 -3.758,8.636 -1.819,2.601 -4.087,4.83 -6.805,6.682 -2.721,1.855 -5.672,3.165 -8.859,3.927 -3.253,0.78 -6.51,0.958 -9.774,0.535 C 6.74,19.82 3.725,18.859 0.958,17.356 -1.809,15.853 -4.23,13.854 -6.306,11.36 -8.381,8.865 -9.823,5.926 -10.634,2.547 c -0.808,-3.382 -0.854,-6.655 -0.135,-9.82 0.723,-3.162 1.978,-6.024 3.771,-8.586"
             style="fill:#243241;fill-opacity:1;fill-rule:nonzero;stroke:none"
             id="path36" />
        </g>
        <g
           id="g38"
           transform="translate(605.8158,364.7772)">
          <path
             d="m 0,0 6.468,14.907 19.6,-8.503 3.514,8.099 -19.6,8.501 4.071,9.388 24.476,-10.619 3.514,8.096 L 7.904,44.678 -9.661,4.191 Z"
             style="fill:#243241;fill-opacity:1;fill-rule:nonzero;stroke:none"
             id="path40" />
        </g>
        <g
           id="g42"
           transform="translate(354.7739,280.0341)">
          <path
             d="m 0,0 c 0.298,-8.869 -0.844,-18.09 -3.391,-27.413 -2.434,-8.889 -6.166,-17.816 -11.094,-26.554 -0.151,-0.449 -0.341,-0.878 -0.561,-1.259 -2.52,-4.307 -5.285,-8.408 -8.232,-12.313 1.616,1.459 3.266,2.875 4.954,4.234 4.056,3.267 8.353,6.158 12.807,8.733 3.405,6.792 6.092,13.663 7.966,20.505 2.478,9.079 3.591,18.055 3.303,26.671 -0.288,8.728 -2.064,17.1 -5.274,24.886 -2.489,6.025 -5.92,11.573 -10.201,16.575 1.596,-2.675 3.066,-5.42 4.259,-8.311 C -2.142,17.69 -0.302,9.025 0,0"
             style="fill:#243241;fill-opacity:1;fill-rule:nonzero;stroke:none"
             id="path44" />
        </g>
        <g
           id="g46"
           transform="translate(316.0025,195.4687)">
          <path
             d="m 0,0 c -3.601,-3.336 -7.304,-6.449 -11.102,-9.255 -6.606,-4.883 -13.553,-9.108 -20.642,-12.552 -7.059,-3.435 -14.221,-6.245 -21.29,-8.343 -3.869,-1.297 -7.986,-2.39 -12.006,-3.171 -0.195,-0.039 -0.386,-0.073 -0.581,-0.112 1.171,-2.556 2.22,-5.235 3.137,-8.025 2.079,-6.342 3.849,-13.085 5.259,-20.046 1.371,-6.757 2.693,-13.553 3.976,-20.403 1.215,-6.508 2.786,-12.855 4.679,-18.865 2.669,-8.674 6.43,-16.421 11.196,-23.071 0.005,0 0.005,-0.005 0.005,-0.005 0.696,-0.973 1.53,-1.812 2.332,-2.682 -3.112,5.381 -5.694,11.29 -7.664,17.698 -1.922,6.104 -3.522,12.548 -4.752,19.154 -1.278,6.835 -2.6,13.621 -3.966,20.363 -1.395,6.869 -3.137,13.519 -5.186,19.763 -1.244,3.786 -2.737,7.357 -4.464,10.689 1.268,0.205 2.532,0.434 3.8,0.683 3.913,0.761 7.928,1.825 11.773,3.108 6.937,2.063 13.972,4.82 20.909,8.196 4.068,1.978 8.078,4.248 12.014,6.726 0.108,0.211 0.195,0.425 0.305,0.636 C -9.022,-13.008 -4.86,-6.435 0,0"
             style="fill:#243241;fill-opacity:1;fill-rule:nonzero;stroke:none"
             id="path48" />
        </g>
        <g
           id="g50"
           transform="translate(171.2463,209.4312)">
          <path
             d="m 0,0 c -2.834,-1.239 -5.888,-2.02 -9.099,-2.322 -3.659,-0.342 -7.391,-0.117 -11.118,0.678 -0.772,0.163 -1.405,0.468 -2.131,0.679 0.533,-0.481 1.045,-0.985 1.609,-1.43 2.42,-1.942 5.552,-3.328 9.294,-4.118 2.581,-0.555 5.156,-0.716 7.712,-0.679 0.7,1.341 1.396,2.671 2.113,4.06 C -1.083,-2.093 -0.542,-1.049 0,0"
             style="fill:#243241;fill-opacity:1;fill-rule:nonzero;stroke:none"
             id="path52" />
        </g>
        <g
           id="g54"
           transform="translate(297.2992,40.7296)">
          <path
             d="m 0,0 c -2.151,-2.381 -4.566,-4.449 -7.181,-6.157 -2.547,-1.658 -5.123,-2.971 -7.66,-3.893 -2.863,-1.044 -5.308,-1.546 -7.469,-1.546 -7.366,0.154 -13.636,1.268 -18.962,3.252 1.196,-0.874 2.423,-1.716 3.722,-2.477 5.976,-3.507 13.752,-5.386 23.49,-5.591 1.868,0 4.03,0.454 6.615,1.396 2.357,0.858 4.762,2.083 7.147,3.639 2.435,1.591 4.684,3.518 6.694,5.737 2.122,2.347 3.771,5.02 4.898,7.948 0.512,1.322 0.439,2.8 -0.205,4.063 C 10.445,7.635 9.299,8.567 7.928,8.933 7.113,9.151 6.421,9.467 5.645,9.716 5.566,9.38 5.502,9.043 5.376,8.718 4.132,5.508 2.327,2.576 0,0"
             style="fill:#243241;fill-opacity:1;fill-rule:nonzero;stroke:none"
             id="path56" />
        </g>
        <g
           id="g58"
           transform="translate(172.622,236.0146)">
          <path
             d="m 0,0 c 0.561,5.479 2.561,11.396 5.952,17.587 3.498,6.411 8.337,12.938 14.382,19.407 6.069,6.503 13.06,12.441 20.788,17.646 5.715,3.86 11.821,7.225 18.215,10.055 1.009,0.921 2.014,1.865 3.031,2.737 4.195,3.6 8.596,6.654 13.148,9.137 C 69.842,75.857 64.212,74.472 58.694,72.418 50.02,69.183 41.8,64.968 34.267,59.885 26.696,54.782 19.846,48.966 13.909,42.605 8.011,36.287 3.293,29.93 -0.107,23.705 -3.337,17.802 -5.24,12.206 -5.766,7.059 -6.323,1.644 -4.644,-1 -3.332,-2.517 -2.358,-3.62 -1.153,-4.503 0.198,-5.257 -0.089,-3.649 -0.199,-1.929 0,0"
             style="fill:#243241;fill-opacity:1;fill-rule:nonzero;stroke:none"
             id="path60" />
        </g>
        <g
           id="g62"
           transform="translate(224.3351,196.5907)">
          <path
             d="m 0,0 c 3.825,7.118 7.972,14.592 12.294,22.159 4.854,8.269 9.982,16.479 15.246,24.412 5.2,7.85 10.698,15.094 16.333,21.524 5.567,6.347 11.372,11.846 17.251,16.344 5.561,4.254 11.235,7.064 16.831,8.347 3.389,0.748 4.496,3.016 4.847,4.108 -1.485,2.494 -3.358,4.83 -5.73,6.986 -0.02,-0.073 -0.039,-0.142 -0.059,-0.21 -0.424,-1.449 -1.932,-4.942 -6.771,-6.01 C 65.022,96.459 59.665,93.801 54.391,89.766 48.644,85.37 42.961,79.984 37.502,73.759 31.94,67.417 26.51,60.265 21.368,52.503 16.133,44.61 11.03,36.433 6.196,28.208 1.898,20.685 -2.234,13.231 -6.049,6.128 c -1.83,-3.401 -3.581,-6.713 -5.25,-9.914 3.147,0.033 6.373,0.248 9.59,0.575 C -1.138,-2.139 -0.587,-1.092 0,0"
             style="fill:#243241;fill-opacity:1;fill-rule:nonzero;stroke:none"
             id="path64" />
        </g>
        <g
           id="g66"
           transform="translate(197.7614,157.0693)">
          <path
             d="M 0,0 C -0.844,0.581 -1.42,0.873 -1.751,1.02 -2.186,0.893 -2.634,0.746 -3.093,0.581 c -4.415,-8.855 -9.425,-19.105 -15.036,-30.745 -6.259,-12.977 -13.348,-25.896 -21.07,-38.395 -4.625,-7.586 -9.616,-14.972 -14.802,-21.919 -5.318,-7.123 -10.933,-13.46 -16.685,-18.832 -5.932,-5.532 -12.172,-10.006 -18.558,-13.299 -6.864,-3.537 -14.065,-5.327 -21.407,-5.327 -4.093,0 -7.805,0.634 -11.236,1.737 5.198,-4.29 11.634,-6.552 19.485,-6.552 6.943,0 13.758,1.697 20.266,5.049 6.176,3.191 12.236,7.533 17.997,12.909 5.645,5.269 11.158,11.489 16.382,18.495 5.143,6.883 10.089,14.206 14.68,21.739 7.679,12.425 14.724,25.266 20.944,38.165 5.805,12.04 10.967,22.592 15.489,31.652 0.6,0.238 1.105,0.371 1.656,0.553 C 3.492,-2.684 1.85,-1.274 0,0"
             style="fill:#243241;fill-opacity:1;fill-rule:nonzero;stroke:none"
             id="path68" />
        </g>
        <g
           id="g70"
           transform="translate(621.0618,92.3109)">
          <path
             d="M 0,0 V 0.002 0.001 Z"
             style="fill:#243241;fill-opacity:1;fill-rule:nonzero;stroke:none"
             id="path72" />
        </g>
        <g
           id="g74"
           transform="translate(827.3237,200.1863)">
          <path
             d="m 0,0 c -1.59,-5.757 -3.888,-11.557 -6.83,-17.241 -2.737,-5.298 -5.371,-10.099 -7.825,-14.255 l -1.586,-2.596 c -0.332,-0.526 -0.624,-1.044 -0.878,-1.556 -5.127,-8.947 -9.811,-17.036 -14.265,-24.676 -4.083,-6.996 -6.703,-12.679 -7.796,-16.889 -0.283,-1.137 -0.429,-2.225 -0.429,-3.245 0.902,0.254 2.283,0.849 4.186,2.22 2.273,1.632 4.613,3.765 6.97,6.125 0.944,1.816 1.976,3.71 3.158,5.735 4.459,7.635 9.137,15.719 14.186,24.529 0.293,0.586 0.625,1.171 0.996,1.762 l 1.556,2.546 c 2.429,4.123 5.044,8.874 7.757,14.134 2.864,5.532 5.098,11.167 6.64,16.757 C 7.459,-0.781 7.967,4.815 7.347,9.977 6.752,14.946 4.296,19.105 0.481,22.202 0.995,20.736 1.383,19.205 1.576,17.587 2.234,12.104 1.708,6.181 0,0"
             style="fill:#243241;fill-opacity:1;fill-rule:nonzero;stroke:none"
             id="path76" />
        </g>
        <g
           id="g78"
           transform="translate(783.875,207.3383)">
          <path
             d="M 0,0 C -1.908,1.376 -3.683,2.41 -5.581,3.283 L -5.84,3.405 c -2.58,-4.649 -5.464,-10.006 -8.62,-15.997 -4.586,-8.727 -9.343,-17.455 -14.133,-25.934 -0.22,-0.39 -0.479,-0.766 -0.766,-1.113 -0.142,-0.165 -0.259,-0.312 -0.342,-0.448 -0.054,-0.147 -0.141,-0.405 -0.205,-0.547 -0.092,-0.2 -0.19,-0.395 -0.297,-0.585 -3.44,-6.152 -7.016,-12.616 -10.719,-19.402 -4.015,-7.338 -8.918,-14.129 -14.582,-20.183 -5.874,-6.279 -13.172,-11.543 -21.685,-15.651 -8.699,-4.195 -19.368,-6.322 -31.711,-6.322 -2.834,0 -5.722,0.507 -8.591,1.502 -0.761,0.264 -1.527,0.561 -2.283,0.888 -5.567,-5.327 -11.133,-9.825 -16.597,-13.416 -7.357,-4.834 -15.46,-7.708 -24.086,-8.547 -0.239,-0.024 -0.478,-0.034 -0.722,-0.034 -1.39,-0.195 -2.327,-0.273 -3.268,-0.273 -0.937,0 -1.879,0.078 -2.825,0.229 -0.254,0 -0.952,0.058 -1.205,0.083 -2.338,0.239 -4.534,0.667 -6.587,1.282 3.932,-3.395 8.951,-5.484 15.09,-6.112 0.434,-0.039 0.83,-0.01 1.352,-0.098 0.809,-0.131 1.619,-0.2 2.424,-0.2 0.81,0 1.615,0.069 2.469,0.205 0.268,0.049 0.532,0.069 1.283,0.093 8.215,0.795 15.938,3.537 22.954,8.147 5.737,3.766 11.596,8.572 17.455,14.309 1.195,-0.585 2.405,-1.088 3.615,-1.507 2.605,-0.908 5.22,-1.366 7.772,-1.366 11.962,0 22.266,2.044 30.628,6.078 8.235,3.967 15.279,9.05 20.943,15.104 5.523,5.904 10.304,12.519 14.217,19.671 3.707,6.796 7.283,13.27 10.732,19.426 0.02,0.039 0.24,0.527 0.259,0.566 0.024,0.049 0.181,0.444 0.205,0.493 0,0.005 0.132,0.298 0.634,0.903 0.195,0.229 0.366,0.478 0.512,0.741 4.781,8.455 9.523,17.158 14.1,25.866 3.572,6.791 6.796,12.754 9.637,17.815 C 0.931,-0.66 0.547,-0.356 0,0"
             style="fill:#243241;fill-opacity:1;fill-rule:nonzero;stroke:none"
             id="path80" />
        </g>
        <g
           id="g82"
           transform="translate(639.4834,138.116)">
          <path
             d="m 0,0 c 1.215,3.552 2.444,6.767 3.664,9.552 1.219,2.791 2.088,4.708 2.512,5.567 l 2.723,4.898 c 0.863,1.551 1.722,3.02 2.619,4.449 8.177,13.397 15.744,22.837 22.486,28.067 2.979,2.307 5.383,3.762 7.348,4.7 -0.036,0.436 0.003,0.939 -0.06,1.349 -0.263,1.717 -0.922,4.654 -2.371,4.942 -0.087,0.02 -0.248,0.039 -0.483,0.039 -1.244,0 -4.6,-0.615 -11.152,-5.693 C 20.783,52.83 13.416,43.615 5.401,30.481 4.508,29.057 3.674,27.627 2.834,26.115 L 0.112,21.217 c -0.366,-0.742 -1.215,-2.62 -2.41,-5.352 -1.19,-2.727 -2.4,-5.874 -3.586,-9.357 -1.209,-3.537 -2.346,-7.347 -3.38,-11.318 -0.991,-3.801 -1.659,-7.274 -1.976,-10.323 -0.166,-1.557 -0.151,-2.728 -0.064,-3.586 2.09,0.288 4.37,1.149 6.79,2.471 0.312,1.535 0.651,3.101 1.084,4.759 C -2.381,-7.464 -1.224,-3.596 0,0"
             style="fill:#243241;fill-opacity:1;fill-rule:nonzero;stroke:none"
             id="path84" />
        </g>
        <g
           id="g86"
           transform="translate(524.9098,195.1857)">
          <path
             d="m 0,0 c -2.805,-6.659 -7.606,-13.421 -14.26,-20.085 -2.615,-2.835 -5.801,-5.225 -9.269,-6.898 -3.318,-1.606 -6.669,-2.654 -9.958,-3.123 -2.364,-0.437 -4.84,-0.416 -7.181,-0.024 1.9,-2.614 4.634,-4.301 7.84,-4.742 2.278,-0.508 4.776,-0.517 7.24,-0.073 3.034,0.434 6.137,1.405 9.225,2.898 3.186,1.536 6.118,3.741 8.582,6.415 2.234,2.236 4.167,4.478 5.959,6.721 2.763,5.514 6.003,11.514 9.621,17.871 C 9.11,3.613 9.434,7.949 8.708,11.884 7.822,16.718 5.397,20.784 1.646,24.112 2.2,22.69 2.631,21.205 2.917,19.646 4,13.767 3.02,7.152 0,0"
             style="fill:#243241;fill-opacity:1;fill-rule:nonzero;stroke:none"
             id="path88" />
        </g>
        <g
           id="g90"
           transform="translate(856.6739,173.1028)">
          <path
             d="m 0,0 c 0.01,-0.204 0.053,-0.395 0.053,-0.603 0,-1.936 -0.527,-3.927 -1.61,-6.083 -1.639,-2.883 -3.669,-6.489 -6.279,-11.177 -2.678,-4.8 -5.849,-10.162 -9.43,-15.953 -3.649,-5.893 -7.747,-11.923 -12.187,-17.939 -4.542,-6.142 -9.396,-11.859 -14.435,-16.996 -5.22,-5.313 -10.675,-9.763 -16.222,-13.221 -6.176,-3.864 -12.455,-5.943 -18.66,-6.172 l -1.098,-0.005 c -0.2,0 -0.405,0.01 -0.605,0.025 -2.403,0.194 -4.643,0.675 -6.783,1.323 4.17,-3.538 9.383,-5.665 15.638,-6.163 l 1.005,0.005 c 5.761,0.21 11.63,2.161 17.431,5.791 5.376,3.356 10.679,7.679 15.763,12.855 4.956,5.049 9.737,10.679 14.206,16.733 4.401,5.957 8.46,11.934 12.075,17.763 3.561,5.757 6.713,11.094 9.371,15.856 2.615,4.698 4.65,8.313 6.225,11.079 0.908,1.805 1.347,3.43 1.347,4.966 C 5.805,-4.078 3.578,-1.148 0,0"
             style="fill:#243241;fill-opacity:1;fill-rule:nonzero;stroke:none"
             id="path92" />
        </g>
        <g
           id="g94"
           transform="translate(658.8026,303.1245)">
          <path
             d="m 0,0 c -1.664,-1.527 -3.591,-3.464 -5.752,-5.771 h 5.045 c 2.042,0 3.935,-0.475 5.591,-1.332 0.559,0.543 1.165,1.16 1.678,1.629 1.171,1.074 1.761,2.635 1.59,4.21 C 7.683,3.188 5.346,7.176 1.359,10.657 1.861,9.255 2.227,7.813 2.386,6.313 2.639,3.952 1.751,1.605 0,0"
             style="fill:#243241;fill-opacity:1;fill-rule:nonzero;stroke:none"
             id="path96" />
        </g>
        <g
           id="g98"
           transform="translate(570.774,270.3843)">
          <path
             d="M 0,0 C 0.123,-0.246 0.247,-0.467 0.365,-0.659 1.906,-3.174 4.461,-4.575 7.561,-4.747 8.648,-3.174 9.764,-1.539 10.835,0 Z"
             style="fill:#243241;fill-opacity:1;fill-rule:nonzero;stroke:none"
             id="path100" />
        </g>
        <g
           id="g102"
           transform="translate(795.9885,253.2263)">
          <path
             d="m 0,0 c -0.459,-2.22 -1.254,-4.996 -2.41,-8.396 2.24,-0.948 4.604,-1.886 7.071,-2.814 0.501,1.669 0.883,3.134 1.144,4.399 C 6.63,-2.8 6.328,1.151 4.825,5.147 3.367,8.549 1.324,11.268 -1.087,13.294 0.582,8.803 0.912,4.43 0,0"
             style="fill:#243241;fill-opacity:1;fill-rule:nonzero;stroke:none"
             id="path104" />
        </g>
        <g
           id="g106"
           transform="translate(668.6281,281.1611)">
          <path
             d="m 0,0 c -1.083,-3.01 -3.059,-5.566 -5.884,-7.596 -2.902,-2.103 -6.03,-3.181 -9.279,-3.181 h -22.139 c -4.976,-6.64 -10.001,-13.67 -14.957,-20.953 -5.791,-8.504 -11.343,-16.88 -16.51,-24.896 -4.532,-6.898 -8.537,-13.143 -12.045,-18.812 -3.503,-5.659 -6.43,-10.474 -8.762,-14.43 -2.083,-3.64 -4.127,-7.372 -6.078,-11.104 -2.03,-3.864 -4.045,-7.625 -6.065,-11.299 -4.195,-7.859 -7.961,-15.533 -11.152,-22.715 -3.117,-7.005 -5.479,-13.201 -7.015,-18.411 -1.054,-3.581 -1.488,-6.065 -1.635,-7.738 1.474,0.449 3.132,1.215 4.903,2.274 1.231,0.733 2.502,1.661 3.763,2.54 1.505,4.471 3.487,9.499 5.95,15.037 3.215,7.235 7.011,14.963 11.246,22.905 2.01,3.654 4.024,7.406 6.039,11.25 1.971,3.761 4.025,7.518 6.142,11.216 2.342,3.966 5.274,8.796 8.792,14.48 3.517,5.683 7.532,11.947 12.069,18.846 5.177,8.035 10.743,16.426 16.539,24.949 5.23,7.679 10.533,15.084 15.782,22.046 h 23.383 c 2.708,0 5.347,0.917 7.82,2.713 2.493,1.79 4.206,4.044 4.923,6.254 C 7.689,-2.42 6.435,0.717 5.503,2.244 4.434,3.974 2.859,5.138 0.991,5.786 1.115,4.113 0.906,2.177 0,0"
             style="fill:#243241;fill-opacity:1;fill-rule:nonzero;stroke:none"
             id="path108" />
        </g>
        <g
           id="g110"
           transform="translate(710.8913,193.7221)">
          <path
             d="m 0,0 c -0.693,-7.386 -2.517,-15.358 -5.425,-23.69 -2.278,-6.66 -5.327,-13.582 -9.04,-20.534 -2.508,-4.689 -5.323,-9.397 -8.406,-14.056 0.478,-0.131 0.976,-0.229 1.503,-0.297 0.912,-0.122 2.527,-0.137 5.098,0.429 0.933,0.205 2.377,0.675 4.273,1.532 1.233,2.085 2.462,4.171 3.577,6.254 3.654,6.835 6.644,13.631 8.888,20.183 2.84,8.142 4.62,15.914 5.298,23.1 0.693,7.474 0.064,14.172 -1.883,19.91 -1.6,4.706 -4.117,8.663 -7.461,11.853 C -3.004,23.478 -2.445,22.259 -2,20.949 0.059,14.87 0.732,7.83 0,0"
             style="fill:#243241;fill-opacity:1;fill-rule:nonzero;stroke:none"
             id="path112" />
        </g>
        <g
           id="g114"
           transform="translate(451.3163,121.3288)">
          <path
             d="m 0,0 c 0.503,5.801 2.059,12.387 4.625,19.583 2.6,7.269 6.118,14.562 10.435,21.641 2.044,3.289 4.335,6.479 6.728,9.609 -0.06,0.104 -0.147,0.184 -0.205,0.29 -1.903,3.488 -2.074,7.625 -0.522,12.333 C 20.471,62.797 19.885,62.119 19.3,61.431 15.48,56.923 11.987,52.142 8.933,47.22 4.713,40.302 1.268,33.165 -1.273,26.052 -3.766,19.061 -5.279,12.684 -5.762,7.098 c -0.414,-4.795 0.083,-8.586 1.488,-11.269 0.561,-1.078 1.24,-1.966 3.845,-1.966 0.15,0 0.301,0.03 0.452,0.031 C -0.159,-4.247 -0.194,-2.237 0,0"
             style="fill:#243241;fill-opacity:1;fill-rule:nonzero;stroke:none"
             id="path116" />
        </g>
        <g
           id="g118"
           transform="translate(413.4682,188.3362)">
          <path
             d="m 0,0 c -3.249,-7.186 -7.581,-14.114 -12.875,-20.583 -4.659,-5.82 -10.02,-11.133 -15.884,-15.723 -6.016,-4.713 -12.221,-8.294 -18.451,-10.636 -6.723,-2.542 -13.402,-3.327 -19.871,-2.298 -3.176,0.498 -6.181,1.547 -8.996,3.128 -0.966,-3.328 -1.6,-6.045 -1.888,-8.079 -1.258,-6.943 -1.175,-12.299 0.191,-16.212 0.585,-1.654 1.2,-2.742 4.371,-2.742 0.161,0 0.326,0.032 0.488,0.034 -0.304,3.417 -0.11,7.355 0.727,11.958 0.326,2.288 1.048,5.347 2.156,9.089 0.258,0.873 0.517,1.717 0.771,2.532 3.312,-2.415 6.927,-3.942 10.82,-4.557 6.021,-0.946 12.285,-0.215 18.602,2.171 5.986,2.254 11.977,5.708 17.788,10.27 1.133,0.886 2.151,1.919 3.245,2.858 1.78,2.027 3.611,3.998 5.302,6.118 5.82,7.298 10.87,14.226 15.016,20.593 2.119,4.138 4.404,8.009 6.775,11.722 1.701,5.058 2.555,9.862 2.485,14.324 C 10.655,20.778 8.167,26.544 3.366,31.111 3.247,31.224 3.084,31.297 2.962,31.407 4.252,28.324 4.958,24.964 5.02,21.324 5.123,14.777 3.435,7.601 0,0"
             style="fill:#243241;fill-opacity:1;fill-rule:nonzero;stroke:none"
             id="path120" />
        </g>
        <g
           id="g122"
           transform="translate(349.2367,168.2559)">
          <path
             d="m 0,0 c -0.146,-0.215 -0.307,-0.42 -0.478,-0.62 -0.185,-0.302 -0.361,-0.59 -0.532,-0.868 0.537,0.142 1.088,0.317 1.659,0.522 2.356,0.859 4.835,2.195 7.371,3.986 2.835,2.005 5.742,4.313 8.626,6.849 3.976,3.484 7.62,7.377 10.84,11.587 3.249,4.249 5.801,8.172 7.591,11.665 0.468,0.917 0.82,1.712 1.078,2.395 -1.546,-0.58 -3.239,-1.517 -5.054,-2.805 C 27.081,29.862 23.037,26.452 19.075,22.578 15.026,18.617 11.279,14.524 7.942,10.416 4.566,6.259 1.893,2.756 0,0"
             style="fill:#243241;fill-opacity:1;fill-rule:nonzero;stroke:none"
             id="path124" />
        </g>
        <g
           id="g126"
           transform="translate(587.5508,116.5721)">
          <path
             d="m 0,0 c -4.205,-4.727 -8.601,-9.128 -13.119,-13.123 -5.99,-5.299 -12.323,-9.684 -18.826,-13.031 -7.03,-3.625 -14.138,-5.464 -21.129,-5.464 -3.088,0 -5.946,0.374 -8.567,1.102 0.757,-0.665 1.545,-1.302 2.386,-1.888 3.839,-2.673 8.693,-4.029 14.431,-4.029 6.59,0 13.313,1.746 19.987,5.186 6.318,3.254 12.48,7.518 18.314,12.679 2.958,2.62 5.856,5.431 8.689,8.38 C 1.133,-7.035 0.394,-3.646 0,0"
             style="fill:#243241;fill-opacity:1;fill-rule:nonzero;stroke:none"
             id="path128" />
        </g>
        <g
           id="g130"
           transform="translate(402.8036,116.9966)">
          <path
             d="M 0,0 C -0.22,1.239 -0.4,2.503 -0.542,3.791 -6.093,-1.82 -11.723,-6.786 -17.378,-11.06 c -9.044,-6.83 -18.163,-12.065 -27.115,-15.567 -9.181,-3.591 -18.163,-5.416 -26.69,-5.416 -5.917,0 -11.217,0.799 -15.879,2.371 6.049,-4.689 14.08,-7.186 24.128,-7.186 8.216,0 16.89,1.766 25.784,5.245 8.732,3.415 17.655,8.542 26.515,15.236 4.074,3.076 8.134,6.566 12.165,10.362 C 0.909,-4.083 0.373,-2.094 0,0"
             style="fill:#243241;fill-opacity:1;fill-rule:nonzero;stroke:none"
             id="path132" />
        </g>
        <g
           id="g134"
           transform="translate(505.4979,113.9719)">
          <path
             d="M 0,0 C -0.024,0.268 -0.044,0.537 -0.063,0.805 -3.532,-2.508 -7.03,-5.527 -10.538,-8.25 -28.335,-22.032 -46,-29.018 -63.051,-29.018 c -5.843,0 -11.078,0.773 -15.676,2.307 5.963,-4.645 13.922,-7.122 23.926,-7.122 16.485,0 33.638,6.81 50.981,20.246 1.886,1.459 3.765,3.083 5.642,4.721 C 0.915,-6.077 0.28,-3.127 0,0"
             style="fill:#243241;fill-opacity:1;fill-rule:nonzero;stroke:none"
             id="path136" />
        </g>
        <g
           id="g138"
           transform="translate(482.6417,191.5999)">
          <path
             d="M 0,0 C 0.068,0.024 0.151,0.059 0.249,0.102 1.654,0.746 3.113,1.786 4.581,3.195 6.303,4.84 7.937,6.781 9.45,8.977 9.83,9.533 10.191,10.079 10.523,10.611 7.113,8.781 3.459,6.21 -0.346,2.971 -1.342,2.122 -2.337,1.234 -3.327,0.312 -3,0.356 -2.673,0.376 -2.342,0.376 -1.561,0.376 -0.771,0.254 0,0"
             style="fill:#243241;fill-opacity:1;fill-rule:nonzero;stroke:none"
             id="path140" />
        </g>
        <g
           id="g142"
           transform="translate(272.5383,67.2606)">
          <path
             d="m 0,0 c -5.269,7.352 -9.352,15.753 -12.255,25.188 -2,6.352 -3.63,12.933 -4.898,19.739 -1.273,6.81 -2.591,13.572 -3.952,20.29 -1.361,6.713 -3.039,13.109 -5.034,19.192 -2.001,6.084 -4.63,11.48 -7.899,16.202 3.63,0.361 7.308,0.908 11.031,1.634 3.717,0.722 7.488,1.723 11.298,2.996 6.713,1.995 13.431,4.63 20.149,7.898 6.713,3.264 13.206,7.216 19.47,11.846 6.264,4.624 12.207,9.981 17.837,16.065 5.625,6.078 10.615,12.84 14.972,20.285 v 0.273 c 4.903,8.528 8.533,17.104 10.894,25.73 2.356,8.62 3.405,17.016 3.132,25.188 -0.273,8.167 -1.908,15.88 -4.903,23.144 -2.996,7.259 -7.396,13.704 -13.206,19.334 -7.079,6.893 -16.202,12.338 -27.364,16.333 -11.163,3.991 -24.642,5.991 -40.434,5.991 -13.982,0 -27.096,-2.039 -39.346,-6.127 -12.255,-4.084 -23.554,-9.484 -33.901,-16.197 -9.987,-6.538 -18.788,-13.938 -26.413,-22.193 -7.625,-8.264 -13.709,-16.655 -18.246,-25.188 -4.537,-8.533 -7.396,-16.841 -8.576,-24.915 -1.181,-8.079 -0.405,-15.207 2.317,-21.373 1.995,-4.181 4.717,-7.625 8.167,-10.348 1.814,-1.453 4.22,-2.497 7.215,-3.132 2.995,-0.639 5.942,-0.819 8.85,-0.546 2.903,0.273 5.581,1.044 8.035,2.317 2.449,1.269 4.034,2.996 4.761,5.172 -4.356,1.268 -7.893,3.449 -10.615,6.537 -3.455,3.991 -4.86,9.074 -4.225,15.245 0.634,6.172 2.815,12.665 6.537,19.471 3.717,6.806 8.757,13.616 15.114,20.422 6.352,6.805 13.567,12.933 21.646,18.377 8.074,5.45 16.743,9.894 26.003,13.343 9.26,3.449 18.695,5.176 28.32,5.176 18.149,0 32.033,-2.956 41.658,-8.849 9.621,-5.903 15.749,-13.343 18.378,-22.33 2.63,-8.986 2.225,-18.924 -1.224,-29.818 -3.45,-10.889 -9.167,-21.236 -17.154,-31.037 -5.444,-6.718 -11.708,-12.933 -18.787,-18.656 -7.079,-5.718 -14.797,-10.577 -23.144,-14.567 -8.352,-3.991 -17.251,-6.85 -26.686,-8.577 -9.44,-1.727 -19.061,-1.951 -28.862,-0.678 3.084,6.167 6.577,12.884 10.485,20.149 3.897,7.259 8.03,14.704 12.386,22.329 4.903,8.347 10.031,16.563 15.387,24.642 5.352,8.074 10.933,15.426 16.744,22.056 5.81,6.625 11.796,12.294 17.972,17.016 6.167,4.718 12.431,7.801 18.788,9.26 1.634,0.361 1.634,1.361 0,2.995 -3.088,2.898 -5.991,4.991 -8.713,6.259 -2.723,1.269 -6.445,1.815 -11.163,1.635 -4.903,-0.366 -9.259,-1.273 -13.069,-2.722 -7.084,-2.542 -13.802,-6.533 -20.154,-11.982 -6.357,-5.445 -12.479,-11.845 -18.377,-19.197 -5.904,-7.348 -11.485,-15.339 -16.749,-23.959 -5.264,-8.626 -10.254,-17.29 -14.972,-26.003 -4.722,-8.899 -9.216,-17.475 -13.48,-25.735 -4.268,-8.259 -8.215,-15.655 -11.845,-22.187 l -4.903,-8.172 c -3.81,-6.898 -7.805,-13.885 -11.977,-20.963 -4.181,-7.084 -8.581,-14.119 -13.206,-21.105 -4.63,-6.991 -9.577,-13.709 -14.841,-20.149 -5.269,-6.444 -10.801,-12.391 -16.611,-17.836 -7.445,-7.259 -15.519,-13.157 -24.232,-17.699 -3.269,-1.81 -6.128,-3.132 -8.577,-3.947 -2.454,-0.82 -5.22,-1.952 -8.308,-3.405 -2.361,-0.908 -3.586,-1.674 -3.674,-2.313 -0.092,-0.634 0.313,-2.22 1.225,-4.766 2.542,-7.625 6.035,-13.48 10.484,-17.563 4.444,-4.084 10.118,-6.128 17.017,-6.128 h 0.273 c 6.171,0 12.157,1.498 17.972,4.494 5.806,2.995 11.436,7.039 16.88,12.118 5.445,5.083 10.709,11.026 15.792,17.836 5.084,6.806 9.894,13.933 14.431,21.373 7.625,12.343 14.524,24.915 20.695,37.712 6.172,12.796 11.616,23.914 16.339,33.355 1.995,0.907 3.902,1.59 5.717,2.044 1.815,0.448 4.176,-0.322 7.079,-2.318 5.264,-3.629 9.484,-8.123 12.665,-13.474 3.171,-5.357 5.718,-11.167 7.62,-17.427 1.908,-6.264 3.357,-12.801 4.357,-19.607 0.995,-6.805 2.044,-13.572 3.132,-20.285 1.093,-7.259 2.454,-14.25 4.083,-20.968 1.635,-6.713 4.089,-12.611 7.352,-17.7 3.269,-5.078 7.533,-9.162 12.802,-12.25 5.259,-3.083 12.157,-4.717 20.69,-4.903 h 0.273 c 1.268,0 2.903,0.366 4.903,1.093 1.995,0.727 4.04,1.766 6.128,3.127 2.083,1.361 3.99,2.996 5.717,4.903 1.722,1.908 3.035,4.04 3.947,6.401 C 12.977,-12.387 5.264,-7.352 0,0"
             style="fill:#243241;fill-opacity:1;fill-rule:nonzero;stroke:none"
             id="path144" />
        </g>
        <g
           id="g146"
           transform="translate(337.3405,162.154)">
          <path
             d="m 0,0 c 1.088,2.542 1.903,4.264 2.449,5.176 0.542,0.903 1.542,2.537 2.996,4.898 l 0.273,0.273 c 1.995,2.903 4.761,6.538 8.303,10.894 3.537,4.357 7.44,8.621 11.709,12.797 4.264,4.171 8.576,7.801 12.933,10.889 4.356,3.088 8.44,4.722 12.255,4.903 3.264,0 5.035,-1.361 5.308,-4.083 0.273,-2.723 -0.591,-6.04 -2.586,-9.938 -2,-3.908 -4.766,-8.172 -8.308,-12.802 C 41.795,18.383 37.848,14.163 33.492,10.347 30.398,7.625 27.315,5.176 24.232,2.995 21.144,0.82 18.104,-0.815 15.109,-1.903 12.114,-2.995 9.299,-3.449 6.669,-3.269 4.035,-3.088 1.81,-2 0,0 m 284.129,-46.971 c -0.82,2.269 -1.049,5.127 -0.683,8.581 0.361,3.445 1.088,7.255 2.181,11.436 1.088,4.171 2.268,8.123 3.537,11.845 1.268,3.718 2.541,7.03 3.815,9.938 1.268,2.902 2.176,4.898 2.722,5.991 0.907,1.634 1.81,3.263 2.722,4.898 0.908,1.634 1.81,3.176 2.722,4.629 8.533,13.978 16.427,23.779 23.691,29.409 7.259,5.625 13.157,7.986 17.699,7.078 4.533,-0.907 7.304,-4.629 8.304,-11.162 0.995,-6.537 -0.503,-14.977 -4.493,-25.325 -3.635,-9.625 -9.626,-20.06 -17.973,-31.31 -2.176,0.902 -4.81,1.497 -7.894,1.766 -3.088,0.273 -5.356,-0.771 -6.805,-3.127 -1.274,-2.181 -1.732,-4.494 -1.366,-6.948 0.366,-2.449 1.268,-4.859 2.727,-7.215 -4.357,-4.176 -8.762,-7.532 -13.206,-10.074 -4.455,-2.542 -8.675,-3.81 -12.665,-3.81 -2.542,0 -4.22,1.131 -5.035,3.4 m 156.422,149.763 c 0.547,-0.639 0.995,-1.41 1.361,-2.317 0.727,-1.815 0.908,-4.177 0.547,-7.079 -0.366,-2.903 -1.454,-6.625 -3.269,-11.163 -4.176,2.357 -7.035,3.947 -8.577,4.767 -1.541,0.815 -2.312,2.493 -2.312,5.035 0,3.99 0.951,7.439 2.859,10.347 1.903,2.903 4.395,3.542 7.489,1.908 0.722,-0.366 1.361,-0.864 1.902,-1.498 m -1.088,-172.497 h 0.82 c 4.898,0.18 9.889,1.858 14.972,5.039 5.084,3.171 10.031,7.216 14.841,12.114 4.81,4.903 9.396,10.303 13.753,16.202 4.356,5.898 8.303,11.708 11.845,17.426 3.537,5.718 6.62,10.933 9.255,15.655 2.629,4.723 4.673,8.352 6.127,10.894 0.546,1.088 0.815,1.996 0.815,2.722 0,1.996 -1.132,3.133 -3.401,3.406 -2.273,0.273 -4.132,-0.864 -5.581,-3.406 -0.912,-1.634 -2.498,-4.219 -4.766,-7.761 -2.274,-3.537 -4.903,-7.533 -7.899,-11.977 -2.995,-4.454 -6.259,-9.079 -9.801,-13.89 -3.541,-4.81 -7.127,-9.215 -10.757,-13.206 -3.63,-3.996 -7.215,-7.259 -10.752,-9.801 -3.542,-2.547 -6.767,-3.81 -9.67,-3.81 -3.629,0.541 -5.674,2.083 -6.122,4.625 -0.459,2.541 -0.322,5.264 0.405,8.171 1.268,4.898 4.127,11.163 8.576,18.788 4.449,7.625 9.123,15.699 14.026,24.232 0.361,0.727 0.771,1.454 1.225,2.18 0.448,0.722 0.951,1.542 1.497,2.449 2.357,3.991 4.903,8.621 7.626,13.89 2.722,5.259 4.805,10.523 6.259,15.792 1.454,5.264 1.907,10.162 1.361,14.704 -0.542,4.532 -2.991,8.074 -7.347,10.616 -0.547,0.366 -1.186,0.727 -1.908,1.092 -4.356,2.357 -9.079,4.494 -14.157,6.396 -5.089,1.908 -9.714,3.854 -13.89,5.855 2.357,6.171 3.854,10.801 4.493,13.889 0.635,3.083 0.41,6.079 -0.683,8.986 -1.629,3.811 -4.083,6.533 -7.352,8.167 -1.453,0.907 -3.224,1.405 -5.308,1.498 -2.088,0.088 -4.039,0.044 -5.854,-0.137 -4.722,-0.366 -8.713,-2.273 -11.982,-5.717 -3.263,-3.45 -5.581,-7.489 -6.942,-12.119 -1.361,-4.63 -1.454,-9.391 -0.273,-14.294 1.181,-4.903 3.952,-9.079 8.308,-12.524 1.995,-1.634 4.625,-3.088 7.894,-4.356 -1.635,-2.908 -3.449,-6.401 -5.445,-10.484 -2,-4.084 -4.181,-8.401 -6.537,-12.933 -2.361,-4.542 -4.859,-9.26 -7.489,-14.163 -2.629,-4.898 -5.308,-9.62 -8.03,-14.158 -0.004,-0.006 -0.003,-0.012 -0.007,-0.018 -2.537,-3.628 -4.89,-7.34 -7.067,-11.144 -2.176,-3.815 -4.537,-7.488 -7.079,-11.03 -2.546,-3.537 -5.308,-6.855 -8.303,-9.938 -2.995,-3.088 -6.401,-5.718 -10.211,-7.893 -3.815,-2.181 -7.176,-3.591 -10.074,-4.225 -2.908,-0.635 -5.45,-0.815 -7.625,-0.542 -2.181,0.273 -4.181,0.908 -5.991,1.908 -1.82,0.995 -3.542,2.219 -5.176,3.673 4.722,6.538 8.849,13.114 12.391,19.739 3.542,6.625 6.401,13.114 8.577,19.47 2.722,7.806 4.4,15.114 5.039,21.92 0.634,6.806 0.088,12.753 -1.634,17.836 -1.727,5.079 -4.63,9.074 -8.713,11.982 -4.088,2.898 -9.489,4.356 -16.202,4.356 h -0.273 c -7.079,0 -13.982,-1.546 -20.695,-4.629 -6.718,-3.088 -12.982,-7.216 -18.788,-12.392 -5.81,-5.171 -11.211,-11.118 -16.201,-17.831 -4.996,-6.718 -9.304,-13.802 -12.934,-21.242 -1.088,-1.634 -2.902,-4.219 -5.444,-7.761 -2.547,-3.537 -5.581,-7.533 -9.123,-11.977 -3.537,-4.454 -7.396,-9.079 -11.572,-13.89 -4.176,-4.81 -8.489,-9.215 -12.933,-13.206 -4.449,-3.996 -8.806,-7.259 -13.07,-9.801 -4.269,-2.547 -8.128,-3.81 -11.572,-3.81 -2.722,0 -4.269,1.585 -4.63,4.761 -0.366,3.176 0.274,7.533 1.908,13.07 1.634,5.537 4.083,11.982 7.352,19.334 3.269,7.352 7.079,15.114 11.435,23.28 1.996,3.63 3.991,7.353 5.991,11.163 1.996,3.815 4.084,7.625 6.264,11.44 2.357,3.991 5.308,8.85 8.845,14.567 3.542,5.718 7.581,12.021 12.119,18.924 5.264,8.167 10.801,16.515 16.611,25.052 5.806,8.528 11.616,16.607 17.427,24.232 h 25.866 c 1.634,0 3.268,0.585 4.903,1.771 1.634,1.176 2.722,2.586 3.268,4.22 0.722,1.634 0.722,3.034 0,4.22 -0.731,1.181 -1.907,1.771 -3.541,1.771 h -21.242 c 3.269,4.171 6.357,7.849 9.26,11.025 2.902,3.176 5.444,5.762 7.625,7.762 -0.366,3.445 -2.317,6.577 -5.854,9.392 -3.542,2.814 -7.128,4.224 -10.758,4.224 -2.722,0 -5.4,-0.775 -8.03,-2.317 -2.634,-1.542 -4.947,-3.586 -6.942,-6.127 -0.546,-0.727 -1.137,-1.498 -1.771,-2.313 -0.639,-0.82 -1.41,-1.771 -2.317,-2.859 -1.815,-2.546 -3.903,-5.356 -6.259,-8.44 -2.362,-3.093 -4.816,-6.537 -7.353,-10.347 h -29.134 c -1.635,0 -3.269,-0.59 -4.903,-1.771 -1.635,-1.186 -2.723,-2.586 -3.269,-4.22 -0.727,-1.634 -0.727,-3.044 0,-4.22 0.727,-1.186 1.907,-1.771 3.542,-1.771 h 25.32 C 253.404,108.28 247.915,100.382 242.198,92.035 236.48,83.682 230.801,75.155 225.176,66.441 218.644,56.27 212.516,46.381 206.798,36.76 201.081,27.135 196.222,18.334 192.231,10.347 V 10.34 c -4.356,-6.715 -9.437,-13.879 -15.246,-21.502 -5.81,-7.625 -12.113,-14.616 -18.924,-20.968 -6.805,-6.357 -13.977,-11.665 -21.509,-15.929 -7.533,-4.269 -15.207,-6.396 -23.008,-6.396 -4.903,0 -8.401,1.996 -10.484,5.986 -2.088,3.991 -2.859,9.123 -2.312,15.387 0.541,6.264 2.176,13.207 4.898,20.832 2.722,7.62 6.352,15.153 10.894,22.597 3.268,5.264 6.942,10.299 11.025,15.114 4.084,4.806 8.26,9.026 12.529,12.66 4.259,3.63 8.347,6.489 12.25,8.577 3.903,2.088 7.396,3.132 10.484,3.132 1.815,0 2.859,-0.776 3.132,-2.313 0.273,-1.546 -0.049,-3.497 -0.952,-5.854 -0.912,-2.361 -2.273,-4.859 -4.088,-7.488 -1.815,-2.635 -3.766,-4.947 -5.854,-6.943 -2.088,-2 -4.22,-3.498 -6.396,-4.493 -2.181,-1 -4.083,-1.137 -5.718,-0.41 -1.634,-3.634 -1.907,-6.444 -0.819,-8.44 1.093,-2 2.903,-3.18 5.449,-3.542 1.63,-0.365 3.444,-0.365 5.445,0 2.537,0.362 5.127,1.181 7.757,2.45 2.629,1.268 5.039,3.088 7.22,5.449 5.986,5.991 10.211,11.884 12.66,17.699 2.449,5.806 3.269,10.933 2.449,15.383 -0.815,4.444 -3.225,8.074 -7.216,10.894 -3.995,2.81 -9.44,4.219 -16.338,4.219 -5.625,0 -11.752,-1.048 -18.378,-3.132 -6.63,-2.088 -13.299,-5.356 -20.012,-9.801 C 114.452,49.054 107.866,43.249 101.426,36.082 94.981,28.906 89.215,20.329 84.136,10.347 79.78,3.63 74.559,-3.537 68.481,-11.162 62.397,-18.787 55.816,-25.778 48.737,-32.13 41.658,-38.487 34.17,-43.795 26.276,-48.059 c -7.898,-4.269 -15.753,-6.396 -23.554,-6.396 -5.815,0 -9.625,2.586 -11.44,7.757 -1.815,5.176 -1.995,11.753 -0.542,19.744 0.361,2.537 1.132,5.805 2.313,9.801 1.181,3.991 2.317,7.352 3.405,10.074 3.991,-4.903 8.577,-7.762 13.753,-8.576 5.171,-0.815 10.523,-0.186 16.065,1.907 5.532,2.083 11.026,5.259 16.47,9.528 5.45,4.264 10.348,9.123 14.704,14.567 4.903,5.991 8.85,12.295 11.845,18.925 2.996,6.625 4.445,12.659 4.357,18.109 -0.093,5.444 -2.044,9.981 -5.854,13.611 -3.81,3.63 -10.167,5.449 -19.061,5.449 -8.352,0 -16.294,-1.634 -23.827,-4.902 C 17.378,58.27 10.343,54.006 3.81,48.742 -2.727,43.473 -8.625,37.482 -13.889,30.769 c -5.269,-6.718 -9.626,-13.523 -13.07,-20.422 -4.903,-9.44 -8.347,-18.924 -10.348,-28.451 -1.995,-9.533 -2.312,-18.11 -0.951,-25.735 1.361,-7.625 4.674,-13.841 9.938,-18.651 5.264,-4.81 12.796,-7.215 22.597,-7.215 7.626,0 15.612,1.634 23.964,4.903 8.347,3.264 16.787,8.118 25.325,14.567 8.528,6.44 16.924,14.47 25.183,24.096 1.568,1.827 3.107,3.767 4.646,5.712 -1.573,-8.593 -1.805,-16.422 -0.558,-23.412 1.361,-7.625 4.63,-13.841 9.801,-18.651 5.172,-4.81 12.66,-7.215 22.466,-7.215 15.426,0 31.399,6.4 47.923,19.197 8.495,6.583 16.796,14.939 24.909,25.005 -0.972,-3.642 -1.664,-7.04 -2.043,-10.164 -0.542,-3.815 -0.635,-7.762 -0.274,-11.846 0.366,-4.083 1.362,-7.761 2.996,-11.03 1.634,-3.264 3.952,-5.947 6.947,-8.03 2.995,-2.088 6.85,-3.132 11.572,-3.132 5.806,0 11.709,1.541 17.7,4.63 5.986,3.083 11.747,7.078 17.289,11.981 5.533,4.898 10.797,10.348 15.792,16.334 4.045,4.856 7.713,9.598 11.165,14.275 -1.423,-7.055 -1.995,-13.643 -1.637,-19.72 0.454,-7.625 2.361,-13.933 5.718,-18.924 3.361,-4.995 8.576,-7.854 15.655,-8.576 0.547,0 1.093,-0.044 1.635,-0.137 0.546,-0.088 1.092,-0.136 1.634,-0.136 0.546,0 1.088,0.048 1.634,0.136 h 0.002 v 0.001 c 0.546,0.092 1.087,0.136 1.632,0.136 7.44,0.722 14.339,3.176 20.695,7.352 6.352,4.171 12.797,9.62 19.329,16.338 2.001,-1.273 4.04,-2.273 6.128,-2.995 2.088,-0.727 4.127,-1.088 6.127,-1.088 11.255,0 20.739,1.859 28.457,5.581 7.713,3.717 14.202,8.391 19.466,14.021 5.264,5.625 9.757,11.845 13.479,18.651 3.718,6.81 7.304,13.299 10.758,19.47 0.047,0.097 0.063,0.171 0.107,0.264 0.231,0.681 0.707,1.488 1.517,2.458 4.718,8.348 9.396,16.924 14.026,25.735 4.63,8.801 8.665,16.197 12.114,22.188 1.995,-0.908 4.176,-1.903 6.537,-2.996 2.356,-1.088 4.537,-2.361 6.532,-3.81 4.176,-2.722 5.899,-6.083 5.177,-10.074 -0.727,-3.996 -2.635,-8.625 -5.718,-13.889 -1.454,-2.542 -2.996,-5.264 -4.63,-8.167 -1.634,-2.908 -3.449,-5.903 -5.444,-8.987 -3.269,-5.444 -6.45,-11.118 -9.533,-17.016 -3.088,-5.903 -5.674,-11.757 -7.757,-17.563 -2.093,-5.81 -3.454,-11.435 -4.088,-16.885 -0.635,-5.444 0.044,-10.347 2.044,-14.704 3.629,-8.532 9.894,-13.162 18.787,-13.884"
             style="fill:#243241;fill-opacity:1;fill-rule:nonzero;stroke:none"
             id="path148" />
        </g>
        <g
           id="g150"
           transform="translate(51.5382,166.4618)">
          <path
             d="m 0,0 h -17.612 v 40.239 h -7.791 l -17.011,-9.894 6.147,-10.567 6.517,3.747 V 0 H -45.41 V -12.216 H 0 Z"
             style="fill:#243241;fill-opacity:1;fill-rule:nonzero;stroke:none"
             id="path152" />
        </g>
        <g
           id="g154"
           transform="translate(83.01,178.9754)">
          <path
             d="m 0,0 c 9.216,0 14.836,-4.049 14.836,-6.298 0,-2.171 -5.62,-6.216 -14.836,-6.216 -9.142,0 -14.763,4.045 -14.763,6.216 C -14.763,-4.049 -9.142,0 0,0 m 0,15.582 c 3.522,0 5.845,-0.971 6.971,-1.722 C 5.845,13.109 3.522,12.138 0,12.138 c -3.444,0 -5.771,0.971 -6.893,1.722 1.122,0.751 3.449,1.722 6.893,1.722 M 0,-24.73 c 15.211,0 27.052,8.094 27.052,18.432 0,5.698 -3.596,10.64 -9.294,14.016 1.273,1.873 1.951,3.893 1.951,6.142 0,7.942 -8.469,13.865 -19.709,13.865 -11.162,0 -19.631,-5.923 -19.631,-13.865 0,-2.249 0.673,-4.269 1.873,-6.142 -5.693,-3.376 -9.216,-8.318 -9.216,-14.016 0,-10.338 11.841,-18.432 26.974,-18.432"
             style="fill:#243241;fill-opacity:1;fill-rule:nonzero;stroke:none"
             id="path156" />
        </g>
        <g
           id="g158"
           transform="translate(910.5454,166.4618)">
          <path
             d="m 0,0 c -9.143,0 -14.763,4.044 -14.763,6.215 0,2.249 5.62,6.299 14.763,6.299 9.216,0 14.836,-4.05 14.836,-6.299 C 14.836,4.044 9.216,0 0,0 m 0,28.096 c 3.522,0 5.845,-0.971 6.971,-1.722 C 5.845,25.622 3.522,24.652 0,24.652 c -3.444,0 -5.771,0.97 -6.893,1.722 1.122,0.751 3.449,1.722 6.893,1.722 m 17.758,-7.864 c 1.273,1.873 1.951,3.893 1.951,6.142 0,7.942 -8.469,13.865 -19.709,13.865 -11.162,0 -19.631,-5.923 -19.631,-13.865 0,-2.249 0.673,-4.269 1.873,-6.142 -5.693,-3.376 -9.216,-8.318 -9.216,-14.017 0,-10.337 11.841,-18.431 26.974,-18.431 15.211,0 27.052,8.094 27.052,18.431 0,5.699 -3.596,10.641 -9.294,14.017"
             style="fill:#243241;fill-opacity:1;fill-rule:nonzero;stroke:none"
             id="path160" />
        </g>
        <g
           id="g162"
           transform="translate(950.1888,206.7004)">
          <path
             d="M 0,0 V -12.143 H 26.749 C 23.3,-15.587 18.656,-19.558 15.358,-22.407 3.293,-32.599 -8.094,-42.336 -8.094,-52.528 H 4.118 c 0,4.571 11.991,14.758 19.109,20.905 11.391,9.664 20.456,17.309 20.456,25.549 V 0 Z"
             style="fill:#243241;fill-opacity:1;fill-rule:nonzero;stroke:none"
             id="path164" />
        </g>
        <g
           id="g166"
           transform="translate(343.9848,45.5587)">
          <path
             d="M 0,0 -5.646,-14.399 H 5.646 Z m -8.846,-22.679 -2.634,-6.963 H -21.55 L -5.457,11.764 H 6.116 l 16,-41.406 H 11.48 l -2.634,6.963 z"
             style="fill:#243241;fill-opacity:1;fill-rule:nonzero;stroke:none"
             id="path168" />
        </g>
        <g
           id="g170"
           transform="translate(379.7428,39.3451)">
          <path
             d="m 0,0 16.656,0.095 c 3.2,0 4.799,1.599 4.799,4.801 0,3.198 -1.599,4.797 -4.799,4.797 H 0 Z m 0,-23.428 h -9.881 v 41.406 h 26.537 c 9.788,0 14.68,-4.365 14.68,-13.082 0,-7.281 -3.45,-11.546 -10.351,-12.799 1.819,-2.635 3.67,-5.224 5.552,-7.763 1.883,-2.539 3.732,-5.128 5.553,-7.762 H 19.856 c -1.819,2.57 -3.638,5.11 -5.457,7.621 -1.822,2.508 -3.641,5.051 -5.458,7.622 H 0 Z"
             style="fill:#243241;fill-opacity:1;fill-rule:nonzero;stroke:none"
             id="path172" />
        </g>
        <g
           id="g174"
           transform="translate(428.3006,15.9167)">
          <path
             d="M 0,0 H -9.881 V 41.406 H 0 v -17.41 l 17.41,17.41 H 29.642 L 13.74,25.5 32.09,0 H 19.856 L 6.681,18.35 0,11.76 Z"
             style="fill:#243241;fill-opacity:1;fill-rule:nonzero;stroke:none"
             id="path176" />
        </g>
        <g
           id="g178"
           transform="translate(483.8191,45.5587)">
          <path
             d="M 0,0 -5.646,-14.399 H 5.646 Z m -8.846,-22.679 -2.634,-6.963 H -21.55 L -5.457,11.764 H 6.116 l 16,-41.406 H 11.48 l -2.634,6.963 z"
             style="fill:#243241;fill-opacity:1;fill-rule:nonzero;stroke:none"
             id="path180" />
        </g>
        <g
           id="g182"
           transform="translate(519.484,15.9167)">
          <path
             d="M 0,0 H -8.846 V 41.406 H 0 L 17.503,17.033 v 24.373 h 8.846 V 0 H 17.503 L 0,24.373 Z"
             style="fill:#243241;fill-opacity:1;fill-rule:nonzero;stroke:none"
             id="path184" />
        </g>
        <g
           id="g186"
           transform="translate(573.7807,23.443)">
          <path
             d="M 0,0 C 0.627,0.127 1.272,0.282 1.93,0.472 2.589,0.659 3.2,0.927 3.765,1.272 4.329,1.617 4.831,2.053 5.271,2.589 5.709,3.12 5.991,3.797 6.118,4.61 6.368,6.368 5.93,7.59 4.801,8.28 3.67,8.971 2.353,9.316 0.847,9.316 h -7.81 c -1.317,0 -2.666,0.109 -4.047,0.332 -1.381,0.218 -2.666,0.595 -3.859,1.126 -1.192,0.536 -2.257,1.272 -3.197,2.212 -0.943,0.94 -1.665,2.167 -2.165,3.67 -0.44,1.254 -0.722,2.571 -0.847,3.952 -0.127,1.38 -0.047,2.73 0.234,4.047 0.284,1.317 0.754,2.589 1.413,3.811 0.658,1.226 1.553,2.275 2.682,3.152 1.944,1.567 4.297,2.652 7.056,3.247 2.762,0.595 5.569,0.786 8.424,0.564 2.854,-0.218 5.629,-0.813 8.328,-1.785 2.695,-0.977 4.955,-2.212 6.774,-3.72 -0.94,-1.254 -1.896,-2.526 -2.868,-3.811 -0.975,-1.286 -1.931,-2.557 -2.871,-3.811 -1.758,1.821 -3.938,3.075 -6.541,3.765 -2.604,0.691 -5.128,0.786 -7.576,0.282 -1.442,-0.313 -2.634,-0.736 -3.575,-1.272 -0.94,-0.531 -1.505,-1.676 -1.694,-3.434 -0.188,-1.567 0.189,-2.711 1.129,-3.434 0.942,-0.722 2.133,-1.081 3.577,-1.081 h 7.152 c 1.317,0 2.695,-0.095 4.14,-0.281 1.442,-0.191 2.823,-0.536 4.14,-1.036 1.317,-0.504 2.525,-1.208 3.624,-2.116 1.097,-0.913 1.96,-2.122 2.587,-3.625 C 15.623,8.753 15.952,7.372 16.045,5.927 16.141,4.488 16.029,3.061 15.716,1.649 15.4,0.236 14.869,-1.099 14.117,-2.353 13.363,-3.606 12.391,-4.642 11.199,-5.455 9.066,-6.963 6.541,-7.999 3.625,-8.562 0.706,-9.125 -2.273,-9.284 -5.317,-9.034 c -3.043,0.249 -5.991,0.849 -8.845,1.789 -2.855,0.941 -5.256,2.162 -7.2,3.67 1.004,1.254 2.008,2.526 3.012,3.811 1.004,1.286 2.007,2.557 3.011,3.811 2.008,-2.008 4.408,-3.325 7.2,-3.952 C -5.348,-0.531 -2.634,-0.563 0,0"
             style="fill:#243241;fill-opacity:1;fill-rule:nonzero;stroke:none"
             id="path188" />
        </g>
        <g
           id="g190"
           transform="translate(614.2466,45.5587)">
          <path
             d="M 0,0 -5.646,-14.399 H 5.646 Z m -8.846,-22.679 -2.634,-6.963 H -21.55 L -5.457,11.764 H 6.116 l 16,-41.406 H 11.48 l -2.634,6.963 z"
             style="fill:#243241;fill-opacity:1;fill-rule:nonzero;stroke:none"
             id="path192" />
        </g>
        <g
           id="g194"
           transform="translate(661.4872,23.443)">
          <path
             d="M 0,0 C 0.627,0.127 1.272,0.282 1.93,0.472 2.589,0.659 3.2,0.927 3.765,1.272 4.329,1.617 4.831,2.053 5.271,2.589 5.709,3.12 5.991,3.797 6.118,4.61 6.368,6.368 5.93,7.59 4.801,8.28 3.67,8.971 2.353,9.316 0.847,9.316 h -7.81 c -1.317,0 -2.666,0.109 -4.047,0.332 -1.381,0.218 -2.666,0.595 -3.859,1.126 -1.192,0.536 -2.257,1.272 -3.197,2.212 -0.943,0.94 -1.665,2.167 -2.165,3.67 -0.44,1.254 -0.722,2.571 -0.847,3.952 -0.127,1.38 -0.047,2.73 0.234,4.047 0.284,1.317 0.754,2.589 1.413,3.811 0.658,1.226 1.553,2.275 2.682,3.152 1.944,1.567 4.297,2.652 7.056,3.247 2.762,0.595 5.569,0.786 8.423,0.564 2.855,-0.218 5.63,-0.813 8.328,-1.785 2.696,-0.977 4.956,-2.212 6.775,-3.72 -0.94,-1.254 -1.896,-2.526 -2.868,-3.811 -0.975,-1.286 -1.931,-2.557 -2.871,-3.811 -1.758,1.821 -3.938,3.075 -6.541,3.765 -2.605,0.691 -5.128,0.786 -7.576,0.282 -1.442,-0.313 -2.634,-0.736 -3.575,-1.272 -0.94,-0.531 -1.505,-1.676 -1.694,-3.434 -0.188,-1.567 0.189,-2.711 1.129,-3.434 0.942,-0.722 2.132,-1.081 3.577,-1.081 h 7.151 c 1.318,0 2.696,-0.095 4.141,-0.281 1.442,-0.191 2.823,-0.536 4.14,-1.036 1.317,-0.504 2.525,-1.208 3.624,-2.116 1.097,-0.913 1.96,-2.122 2.587,-3.625 C 15.623,8.753 15.952,7.372 16.045,5.927 16.14,4.488 16.029,3.061 15.716,1.649 15.4,0.236 14.869,-1.099 14.117,-2.353 13.363,-3.606 12.391,-4.642 11.199,-5.455 9.066,-6.963 6.541,-7.999 3.625,-8.562 0.706,-9.125 -2.273,-9.284 -5.317,-9.034 c -3.043,0.249 -5.991,0.849 -8.845,1.789 -2.855,0.941 -5.256,2.162 -7.2,3.67 1.004,1.254 2.008,2.526 3.012,3.811 1.004,1.286 2.007,2.557 3.011,3.811 2.008,-2.008 4.408,-3.325 7.199,-3.952 C -5.348,-0.531 -2.634,-0.563 0,0"
             style="fill:#243241;fill-opacity:1;fill-rule:nonzero;stroke:none"
             id="path196" />
        </g>
      </g>
    </g>
  </g>
</svg>
