<?xml version="1.0" encoding="UTF-8" standalone="no"?>
<!-- Created with Inkscape (http://www.inkscape.org/) -->

<svg
   version="1.1"
   id="svg2"
   width="921.7392"
   height="921.73944"
   viewBox="0 0 921.73919 921.73944"
   sodipodi:docname="COF_LOGOS.pdf"
   xmlns:inkscape="http://www.inkscape.org/namespaces/inkscape"
   xmlns:sodipodi="http://sodipodi.sourceforge.net/DTD/sodipodi-0.dtd"
   xmlns="http://www.w3.org/2000/svg"
   xmlns:svg="http://www.w3.org/2000/svg">
  <defs
     id="defs6">
    <clipPath
       clipPathUnits="userSpaceOnUse"
       id="clipPath16">
      <path
         d="M 0,700 H 700 V 0 H 0 Z"
         id="path14" />
    </clipPath>
  </defs>
  <sodipodi:namedview
     id="namedview4"
     pagecolor="#ffffff"
     bordercolor="#999999"
     borderopacity="1"
     inkscape:showpageshadow="0"
     inkscape:pageopacity="0"
     inkscape:pagecheckerboard="0"
     inkscape:deskcolor="#d1d1d1"
     showgrid="false" />
  <g
     id="g8"
     inkscape:groupmode="layer"
     inkscape:label="COF_LOGOS"
     transform="matrix(1.3333333,0,0,-1.3333333,-5.7970667,927.53651)">
    <g
       id="g10">
      <g
         id="g12"
         clip-path="url(#clipPath16)">
        <g
           id="g18"
           transform="translate(151.1128,185.8484)">
          <path
             d="m 0,0 c 11.605,14.196 22.511,29.006 32.717,44.418 10.196,15.402 19.897,30.911 29.115,46.527 9.195,15.606 18.004,31.008 26.404,46.216 l 10.809,18.014 c 8.001,14.4 16.702,30.706 26.113,48.914 9.4,18.209 19.306,37.116 29.717,56.734 10.4,19.209 21.403,38.31 33.008,57.325 11.604,19.005 23.908,36.622 36.922,52.818 13.003,16.209 26.501,30.32 40.514,42.322 14.004,12.014 28.813,20.811 44.43,26.415 8.4,3.194 18.004,5.195 28.813,6.001 10.401,0.398 18.606,-0.806 24.608,-3.603 6.002,-2.796 12.401,-7.41 19.209,-13.799 3.603,-3.603 3.603,-5.808 0,-6.604 -14.014,-3.215 -27.824,-10.012 -41.419,-20.412 -13.616,-10.412 -26.812,-22.909 -39.621,-37.515 -12.81,-14.616 -25.114,-30.824 -36.912,-48.624 -11.809,-17.81 -23.113,-35.922 -33.922,-54.324 -9.604,-16.811 -18.714,-33.223 -27.307,-49.226 -8.615,-16.015 -16.316,-30.824 -23.113,-44.419 21.607,-2.807 42.816,-2.313 63.627,1.495 20.801,3.807 40.418,10.11 58.831,18.907 18.402,8.797 35.417,19.51 51.023,32.116 15.606,12.615 29.415,26.318 41.418,41.127 17.606,21.606 30.211,44.419 37.815,68.424 7.604,24.017 8.497,45.925 2.699,65.736 -5.797,19.812 -19.305,36.213 -40.514,49.227 -21.22,12.992 -51.829,19.51 -91.839,19.51 -21.22,0 -42.02,-3.808 -62.433,-11.413 -20.413,-7.602 -39.525,-17.401 -57.326,-29.414 -17.81,-12.002 -33.717,-25.511 -47.72,-40.515 -14.014,-15.004 -25.124,-30.018 -33.32,-45.021 -8.206,-15.005 -13.013,-29.319 -14.412,-42.924 -1.397,-13.606 1.7,-24.813 9.315,-33.61 6.001,-6.807 13.798,-11.615 23.403,-14.412 -1.603,-4.797 -5.098,-8.604 -10.497,-11.401 -5.41,-2.806 -11.315,-4.507 -17.714,-5.108 -6.41,-0.602 -12.906,-0.205 -19.51,1.204 -6.604,1.399 -11.906,3.701 -15.907,6.905 -7.604,6.001 -13.605,13.594 -18.004,22.812 -6.001,13.595 -7.712,29.308 -5.109,47.118 2.603,17.8 8.905,36.116 18.908,54.928 10.002,18.809 23.414,37.309 40.224,55.527 16.81,18.199 36.213,34.514 58.229,48.926 22.811,14.799 47.72,26.706 74.738,35.707 4.774,1.594 9.682,2.871 14.576,4.182 -13.68,1.646 -27.575,2.593 -41.699,2.593 -190.898,0 -345.652,-154.754 -345.652,-345.652 0,-86.253 31.666,-165.062 83.91,-225.616 9.104,6.607 17.856,13.973 26.234,22.142 C -23.812,-27.32 -11.616,-14.208 0,0"
             style="fill:#1d252c;fill-opacity:1;fill-rule:nonzero;stroke:none"
             id="path20" />
        </g>
        <g
           id="g22"
           transform="translate(695.6522,350)">
          <path
             d="m 0,0 c 0,62.329 -16.582,120.752 -45.449,171.246 -1.048,-5.71 -2.272,-11.448 -3.857,-17.249 -5.206,-19.015 -13.208,-37.924 -24.017,-56.724 V 96.671 C -82.927,80.26 -93.93,65.352 -106.33,51.952 c -12.412,-13.413 -25.512,-25.221 -39.321,-35.417 -13.81,-10.207 -28.125,-18.92 -42.925,-26.113 -14.809,-7.207 -29.619,-13.015 -44.418,-17.413 -8.4,-2.808 -16.714,-5.013 -24.909,-6.604 -8.206,-1.603 -16.316,-2.807 -24.318,-3.603 7.206,-10.412 13.003,-22.307 17.413,-35.719 4.399,-13.412 8.099,-27.511 11.1,-42.31 3,-14.811 5.904,-29.716 8.711,-44.731 2.797,-15.003 6.389,-29.512 10.798,-43.515 6.399,-20.801 15.402,-39.322 27.017,-55.529 10.995,-15.357 27.004,-25.968 47.701,-32.162 C -63.601,-229.728 0,-122.326 0,0"
             style="fill:#1d252c;fill-opacity:1;fill-rule:nonzero;stroke:none"
             id="path24" />
        </g>
        <g
           id="g26"
           transform="translate(419.4328,61.2818)">
          <path
             d="m 0,0 c -7.195,11.216 -12.605,24.22 -16.208,39.019 -3.592,14.81 -6.593,30.223 -9.002,46.226 -2.399,14.799 -4.71,29.717 -6.905,44.719 -2.205,15.005 -5.399,29.416 -9.604,43.226 -4.194,13.798 -9.809,26.608 -16.8,38.418 -7.012,11.798 -16.315,21.703 -27.92,29.705 -6.399,4.399 -11.605,6.098 -15.606,5.109 -4.001,-1 -8.206,-2.506 -12.605,-4.506 -10.411,-20.812 -22.414,-45.324 -36.019,-73.534 -13.606,-28.211 -28.813,-55.927 -45.623,-83.137 C -206.295,68.843 -216.9,53.129 -228.106,38.127 -238.648,24.004 -249.554,11.639 -260.8,0.886 c 54.798,-36.505 120.584,-57.82 191.367,-57.82 42.403,0 83.005,7.671 120.541,21.642 -8.711,1.804 -16.421,4.494 -22.886,8.284 C 16.606,-20.199 7.206,-11.197 0,0"
             style="fill:#1d252c;fill-opacity:1;fill-rule:nonzero;stroke:none"
             id="path28" />
        </g>
      </g>
    </g>
  </g>
</svg>
