<?xml version="1.0" encoding="UTF-8" standalone="no"?>
<!-- Created with Inkscape (http://www.inkscape.org/) -->

<svg
   version="1.1"
   id="svg1"
   width="1333.3333"
   height="537.77069"
   viewBox="0 0 1333.3333 537.77069"
   xmlns="http://www.w3.org/2000/svg"
   xmlns:svg="http://www.w3.org/2000/svg">
  <defs
     id="defs1">
    <clipPath
       clipPathUnits="userSpaceOnUse"
       id="clipPath3">
      <path
         d="M 0,403.328 H 1000 V 0 H 0 Z"
         transform="translate(-279.1303,-376.59481)"
         id="path3" />
    </clipPath>
    <clipPath
       clipPathUnits="userSpaceOnUse"
       id="clipPath5">
      <path
         d="M 0,403.328 H 1000 V 0 H 0 Z"
         transform="translate(-396.88471,-94.1217)"
         id="path5" />
    </clipPath>
  </defs>
  <g
     id="layer-MC0">
    <path
       id="path1"
       d="M 986.948,8.656 H 14.783 v 384.215 h 972.165 z"
       style="fill:#ffffff;fill-opacity:1;fill-rule:nonzero;stroke:none"
       transform="matrix(1.3333333,0,0,-1.3333333,0,537.77067)" />
    <path
       id="path2"
       d="m 0,0 c 1.044,-0.38 2.061,-0.795 3.062,-1.238 1.46,-0.649 2.891,-1.329 4.254,-2.114 0.972,-0.559 1.869,-1.211 2.787,-1.84 1.285,-0.88 2.596,-1.719 3.772,-2.736 0.009,-0.009 0.02,-0.014 0.03,-0.022 l 62.619,-62.618 c 0.067,0.051 0.134,0.086 0.201,0.137 2.835,2.134 5.66,4.045 8.496,5.802 0.391,0.242 0.778,0.495 1.168,0.729 2.668,1.605 5.308,3.023 7.944,4.285 0.613,0.296 1.219,0.579 1.829,0.855 2.416,1.089 4.795,2.042 7.156,2.836 0.87,0.295 1.724,0.54 2.586,0.795 2.095,0.614 4.16,1.157 6.188,1.527 1.14,0.214 2.238,0.318 3.353,0.454 1.72,0.202 3.43,0.407 5.081,0.423 1.411,0.02 2.742,-0.137 4.096,-0.255 1.299,-0.118 2.623,-0.164 3.863,-0.409 1.704,-0.33 3.28,-0.907 4.861,-1.482 0.804,-0.295 1.668,-0.467 2.437,-0.824 2.313,-1.071 4.487,-2.393 6.454,-4.048 0.63,-0.539 1.142,-1.126 1.726,-1.684 0.812,-0.773 1.668,-1.531 2.396,-2.338 0.008,-0.01 0.019,-0.017 0.027,-0.027 l 35.871,-35.86 c 0.74,1.048 1.553,2.085 2.331,3.129 0.724,0.973 1.415,1.949 2.171,2.913 1.344,1.717 2.761,3.397 4.199,5.063 0.301,0.35 0.578,0.715 0.884,1.061 3.592,4.078 7.444,7.947 11.522,11.381 0.321,0.28 0.65,0.472 0.972,0.746 3,2.555 6.02,4.86 9.052,6.947 1.209,0.832 2.41,1.54 3.619,2.299 2.235,1.402 4.459,2.705 6.684,3.861 1.26,0.653 2.504,1.276 3.756,1.851 2.346,1.08 4.663,1.993 6.97,2.803 0.994,0.348 1.992,0.765 2.976,1.063 3.273,0.997 6.492,1.761 9.62,2.221 0.334,0.049 0.643,0.039 0.975,0.081 2.838,0.37 5.587,0.503 8.257,0.441 0.761,-0.02 1.485,-0.098 2.231,-0.152 2.274,-0.16 4.461,-0.475 6.568,-0.952 0.64,-0.146 1.278,-0.281 1.901,-0.455 2.445,-0.682 4.764,-1.557 6.916,-2.676 0.144,-0.075 0.305,-0.123 0.447,-0.2 2.435,-1.309 4.653,-2.893 6.634,-4.754 0.007,-0.006 0.016,-0.01 0.023,-0.016 l 31.534,-31.477 7.101,26.664 -20.8,21.038 c -0.536,0.053 -0.827,0.264 -0.834,0.65 -0.046,0.352 0.131,0.837 0.532,1.439 l 8.61,12.91 c 0.858,0.868 2.579,1.726 3.442,1.726 h 18.936 l 3.447,12.91 c 1.933,6.451 2.415,11.933 0.184,15.907 -0.726,1.286 -1.762,2.4 -3.101,3.352 H -7.52 C -6.626,1.935 -5.717,1.775 -4.846,1.55 -3.175,1.116 -1.579,0.577 0,0 m -226.016,-310.329 c 10.033,33.444 16.717,48.728 25.798,82.654 0.144,1.222 0.243,2.452 0.301,3.683 0.012,0.268 0.013,0.533 0.019,0.799 0.027,1.035 0,2.07 -0.08,3.102 -0.018,0.242 -0.027,0.484 -0.052,0.724 -0.14,1.318 -0.402,2.631 -0.79,3.902 -0.073,0.242 -0.174,0.478 -0.259,0.717 -0.456,1.283 -1.015,2.53 -1.82,3.64 -0.875,1.205 -1.905,2.288 -2.952,3.347 -0.541,0.548 -1.087,1.09 -1.652,1.612 -0.245,0.227 -0.587,0.49 -0.863,0.784 -0.138,0.13 -0.224,0.263 -0.263,0.42 -0.019,0.056 -0.093,0.095 -0.097,0.155 -0.004,0.053 0.052,0.071 0.055,0.12 0.021,0.24 0.128,0.473 0.322,0.695 0.039,0.039 0.041,0.099 0.085,0.135 0.052,0.049 0.141,0.075 0.2,0.121 0.225,0.15 0.463,0.296 0.681,0.413 12.42,6.689 16.717,14.331 20.062,23.888 3.909,14.563 7.851,29.395 11.857,44.493 l -74.3,74.292 v -291.35 h 16.555 c -0.664,13.173 3.169,27.8 7.193,41.654 M -110.96,-2.763 c 0.138,0.116 0.273,0.232 0.411,0.348 1.8,1.514 3.54,3.028 5.222,4.537 h -90.4 l 36.213,-36.213 c 17.014,7.797 34.439,19.508 48.554,31.328 M 554.975,-117.588 435.15,2.122 h 256.354 v -87.087 l -24.241,24.24 c -0.001,0.002 -0.004,0.003 -0.005,0.005 -0.997,1.33 -2.256,2.356 -3.671,3.189 -0.243,0.144 -0.496,0.269 -0.751,0.4 -1.401,0.711 -2.916,1.273 -4.607,1.577 -0.065,0.012 -0.119,0.038 -0.185,0.05 -1.692,0.288 -3.532,0.331 -5.441,0.251 -0.543,-0.022 -1.086,-0.062 -1.643,-0.112 -1.751,-0.16 -3.547,-0.423 -5.405,-0.847 -0.194,-0.045 -0.37,-0.043 -0.565,-0.089 -1.334,-0.267 -2.783,-0.705 -4.308,-1.264 -0.147,-0.053 -0.315,-0.139 -0.464,-0.195 -1.331,-0.506 -2.705,-1.083 -4.145,-1.779 -0.882,-0.424 -1.812,-0.946 -2.727,-1.435 -0.735,-0.394 -1.449,-0.749 -2.202,-1.182 -1.147,-0.658 -2.322,-1.398 -3.501,-2.14 -0.468,-0.294 -0.921,-0.545 -1.393,-0.851 l -14.015,14.273 -0.213,-0.034 c -0.331,0.421 -1.055,0.434 -1.42,-0.227 l -0.042,-0.008 c -8.61,-9.892 -37.015,-16.786 -48.633,-15.06 -1.292,0 -1.726,-0.859 -1.292,-1.726 0.002,-0.003 0.004,-0.006 0.006,-0.008 0.001,-0.003 -10e-4,-0.005 0,-0.007 1.291,-1.074 2.23,-2.283 2.882,-3.619 1.952,-4.013 1.307,-9.175 -0.304,-15.302 -2.627,-10.115 -5.539,-20.523 -8.244,-30.723"
       style="fill:#5c87ba;fill-opacity:1;fill-rule:nonzero;stroke:none"
       transform="matrix(1.3333333,0,0,-1.3333333,372.17373,35.644267)"
       clip-path="url(#clipPath3)" />
    <path
       id="path4"
       d="M 0,0 C 0.471,0 0.184,-0.184 0.748,-0.092 7.252,0.563 9.516,10.745 9.137,15.56 8.861,20.272 7.447,23.478 5.46,25.455 4.712,26.49 2.725,27.524 0.84,27.627 H 0.656 c -3.862,0 -8.482,-4.149 -9.148,-13.01 C -8.871,9.526 -5.757,0.666 0,0 m -58.429,28.098 c -4.333,-1.045 -4.425,-4.343 -4.804,-8.021 -0.287,-1.977 -0.287,-6.402 -0.092,-11.78 0.379,-4.241 2.643,-8.297 6.504,-8.205 6.884,0.758 8.953,10.377 8.574,15.468 -0.655,9.045 -7.068,13.101 -10.182,12.538 M 584.239,295.084 H -378.008 V -80 H 584.239 Z M 594.728,-90.489 H -388.498 V 305.573 H 594.728 Z M 207.437,235.624 h -26.258 c -0.084,0 -0.06,0.071 -0.133,0.078 l 20.799,-21.038 z M 433.791,22.342 v 9.997 H 427.01 V 8.114 c -0.195,-0.758 -0.943,-0.379 -1.424,0 -5.839,9.137 -12.067,19.134 -14.986,23.754 H 391.373 V -4.527 l 0.092,-0.471 h 6.689 v 21.777 c 0.194,0.574 0.666,1.885 1.792,0.38 3.207,-5.655 6.792,-11.688 13.768,-22.249 l 20.077,0.092 c -0.092,0.102 0.092,0.471 0,0.666 v 22.628 c -0.092,0.471 0.092,3.954 0,4.046 M 389.93,122.856 c 2.584,6.026 6.889,11.194 14.207,15.494 0.858,0.434 1.292,1.292 0.425,1.726 -4.301,3.442 -6.027,7.743 -6.027,12.476 6.027,42.616 -14.63,75.321 -49.924,75.321 -35.294,0 -73.171,-32.705 -88.665,-75.321 -2.579,-4.733 -6.455,-9.034 -12.91,-12.476 -0.863,-0.434 -1.292,-1.292 -0.429,-1.726 5.592,-4.3 6.455,-9.468 6.021,-15.494 v -2.15 C 250.049,82.4 270.277,53.561 303.42,53.561 c 33.139,0 68.432,28.839 85.652,67.145 0.429,0.425 0.858,1.292 0.858,2.15 m -5.011,-91.275 h -9.332 l -0.286,-0.471 c -1.219,-2.54 -5.276,-13.193 -8.482,-17.813 -1.885,-2.356 -5.654,-1.701 -7.068,1.126 -2.827,5.47 -5.286,11.975 -7.734,17.537 -3.298,0 -10.274,0 -11.688,-0.184 -1.977,0.277 -2.642,-1.7 -3.298,-3.401 -2.551,-5.091 -6.033,-14.699 -9.619,-19.227 -1.598,-1.137 -3.861,-1.229 -5.091,1.219 -3.39,6.607 -6.975,15.744 -9.803,21.122 0,0 -3.493,-0.184 -8.205,-0.092 -4.333,-0.092 -9.147,0 -13.48,-0.092 5.941,-11.975 10.653,-24.329 16.502,-36.395 h 21.02 c 2.643,4.999 4.999,11.216 7.734,14.709 1.598,1.793 3.575,0.471 4.712,-1.884 2.069,-4.241 3.769,-8.482 5.746,-12.733 6.976,0 14.044,-0.092 21.02,-0.092 5.757,12.159 11.698,24.512 17.352,36.671 m -23.232,-79.1 c -1.977,0 -12.825,0.103 -17.25,0.195 -2.827,0.092 -3.206,1.885 -3.114,4.241 v 28.661 h -20.077 v -36.959 h 40.441 c -0.092,1.322 0.092,1.506 0,3.862 m -49.558,0.287 c -4.896,10.745 -9.803,21.491 -14.607,32.246 l -17.445,-0.102 -0.276,0.195 -1.322,-0.195 c -5.654,-11.596 -11.78,-23.56 -17.444,-35.156 -0.564,-1.7 1.608,-0.942 3.021,-1.229 2.449,0.092 1.127,0 3.586,0.092 0.563,1.701 1.885,4.62 2.827,6.7 0.942,1.782 2.448,2.253 4.425,2.253 l 9.055,-0.092 h 0.092 c 0,0 3.207,0.287 4.149,-1.414 1.321,-2.161 2.264,-5.838 3.114,-7.539 7.16,0.092 15.837,0 21.02,0.092 1.598,0.287 -0.195,4.149 -0.195,4.149 m -54.444,42.428 v -0.092 c 3.012,-0.471 12.538,-0.666 19.329,2.92 7.345,3.206 13.952,10.93 12.159,18.95 -1.608,8.103 -10.182,13.481 -18.479,14.423 -2.356,0.092 -5.183,0.379 -7.631,0.379 -0.758,0 -1.516,0 -2.172,-0.102 -1.608,-0.093 -3.022,-0.369 -4.056,-0.369 -8.297,-0.943 -18.377,-6.505 -19.985,-14.71 -1.885,-7.918 4.241,-15.652 11.688,-18.858 4.343,-1.977 7.17,-2.448 9.147,-2.541 m -12.64,-38.187 c 1.219,0.758 1.884,1.413 2.724,1.987 2.172,2.161 6.792,6.689 5.562,14.423 -0.942,5.839 -7.918,12.067 -15.836,11.872 -10.366,0 -19.893,0.092 -30.259,0.195 v -37.051 h 19.606 l -0.092,2.161 c 0.563,4.528 6.597,4.251 6.597,4.251 3.206,0.185 5.469,-1.608 6.412,-2.735 0.195,-0.286 1.137,-1.229 1.414,-1.608 0.471,-0.563 1.413,-1.977 1.413,-1.977 h 3.678 c 1.413,0 3.585,-0.287 2.929,0.656 l -4.62,5.378 c -0.942,1.321 0,2.069 0.472,2.448 m -46.26,28.661 h -16.123 c -11.883,0 -18.285,0.092 -30.925,0.092 0,-1.413 0,-1.977 -0.092,-4.148 1.987,0 5.848,0.092 10.274,0 2.171,-0.093 2.827,-1.127 3.021,-2.633 v -30.269 h 2.357 v -0.093 h 18.192 v 21.778 c 0.092,0 0.092,0 0.195,0.092 l -0.195,0.195 0.092,1.321 c -0.092,0.092 -0.092,0.092 -0.092,0.185 v 6.689 c 0.195,1.516 0.942,2.55 3.114,2.642 4.425,0.093 8.205,0.093 10.182,0 0,2.264 -0.092,2.828 0,4.149 m -47.663,9.24 20.077,0.092 c -0.092,0.102 0.093,0.471 0,0.666 v 22.628 c -0.092,0.471 0.093,3.954 0,4.046 v 9.997 h -6.781 V 8.114 c -0.195,-0.758 -0.942,-0.379 -1.424,0 -5.839,9.137 -12.067,19.134 -14.986,23.754 H 128.781 V -4.527 l 0.092,-0.471 h 6.689 v 21.777 c 0.195,0.574 0.666,1.885 1.793,0.38 3.206,-5.655 6.791,-11.688 13.767,-22.249 m -9.342,-18.859 v 9.998 h -6.781 v -24.226 c -0.195,-0.758 -0.953,-0.379 -1.424,0 -5.839,9.137 -12.067,19.135 -14.986,23.755 H 99.362 v -36.395 l 0.092,-0.471 h 6.689 v 21.777 c 0.195,0.574 0.666,1.885 1.792,0.379 3.207,-5.654 6.792,-11.688 13.768,-22.249 l 20.077,0.093 c -0.092,0.102 0.092,0.471 0,0.665 v 22.628 c -0.092,0.471 0.092,3.954 0,4.046 m -51.822,9.527 H 49.425 v -7.918 h -0.092 v -19.422 h 0.092 v -9.619 h 40.441 c -0.092,1.322 0.092,1.506 0,3.862 -1.977,0 -12.825,0.103 -17.25,0.195 -2.079,0.092 -2.827,0.942 -3.022,2.356 v 8.481 c 0.092,1.035 0.943,1.885 1.977,1.988 1.608,0.184 3.309,0.092 4.907,0.184 4.333,0 8.768,0.092 13.101,0.092 0.092,1.322 0,2.827 0,4.241 -0.184,0.287 -0.85,0 -1.127,0.092 -5.47,0 -10.94,0.103 -16.41,0.195 -1.034,0 -2.161,0.655 -2.356,1.792 -0.092,0.093 -0.092,0.277 -0.092,0.379 v 4.805 c -0.092,2.356 0.287,4.148 3.114,4.24 4.425,0.093 15.273,0.185 17.25,0.185 0.092,2.366 -0.092,2.55 0,3.872 M 44.743,-5.09 h 21.02 c 2.643,4.999 4.999,11.216 7.734,14.709 1.598,1.793 3.575,0.471 4.712,-1.884 2.069,-4.241 3.77,-8.482 5.747,-12.733 6.975,0 14.043,-0.092 21.019,-0.092 5.757,12.159 11.698,24.512 17.353,36.671 h -9.332 l -0.287,-0.471 c -1.219,-2.54 -5.275,-13.193 -8.482,-17.813 -1.884,-2.356 -5.654,-1.701 -7.068,1.126 -2.827,5.47 -5.285,11.975 -7.733,17.537 -3.299,0 -10.275,0 -11.688,-0.184 -1.977,0.277 -2.643,-1.7 -3.299,-3.401 -2.55,-5.091 -6.033,-14.699 -9.618,-19.227 -1.598,-1.137 -3.862,-1.229 -5.091,1.219 -3.391,6.607 -6.976,15.744 -9.803,21.122 0,0 -3.493,-0.184 -8.205,-0.092 -4.333,-0.092 -9.148,0 -13.481,-0.092 C 34.182,19.33 38.894,6.976 44.743,-5.09 m -9.997,-37.901 c -3.483,-2.633 -7.826,-3.678 -12.251,-3.012 -9.332,1.885 -12.825,10.93 -10.377,17.435 1.045,4.24 6.136,9.618 12.538,9.618 5.562,0.185 10.745,-3.298 10.745,-3.298 0,0 1.23,-0.758 1.988,-0.185 l 0.276,0.185 c 1.137,1.034 0.195,2.356 0.195,2.356 v 0.092 c -1.793,2.827 -10.469,5.091 -16.687,4.999 -1.229,0 -2.55,0.092 -3.769,0.092 -0.472,0 -0.851,0 -1.322,-0.092 -8.953,-0.185 -19.134,-3.493 -23.099,-11.411 -3.585,-9.138 0.666,-17.629 8.953,-21.778 7.826,-3.954 18.674,-4.989 26.684,-2.448 3.299,0.758 8.861,3.493 9.988,6.699 0.573,2.919 -1.598,3.012 -3.862,0.748 m -48.8,40.728 c 4.343,-1.977 7.17,-2.448 9.147,-2.541 v -0.092 c 3.012,-0.471 12.538,-0.666 19.33,2.92 7.344,3.206 13.951,10.93 12.159,18.95 -1.608,8.103 -10.182,13.481 -18.479,14.423 -2.356,0.092 -5.184,0.379 -7.632,0.379 -0.758,0 -1.516,0 -2.171,-0.102 -1.609,-0.093 -3.022,-0.369 -4.057,-0.369 -8.297,-0.943 -18.377,-6.505 -19.985,-14.71 -1.885,-7.918 4.241,-15.652 11.688,-18.858 m -16.748,19.237 c -1.608,8.103 -10.182,13.481 -18.479,14.423 -8.953,0.379 -17.814,0.184 -26.777,0.277 -0.369,-0.093 -0.84,-0.093 -1.311,-0.093 h -1.137 l 0.092,0.093 h -0.092 v -0.093 h -3.391 V -4.998 h 10.459 c 9.711,0.287 19.893,-1.035 28.948,3.022 7.447,3.206 13.48,10.93 11.688,18.95 m 211.876,10.93 c 1.977,0 5.839,0.092 10.274,0 2.172,-0.092 2.827,-1.127 3.012,-2.633 V -4.998 h 2.356 V -5.09 h 18.202 v 21.777 c 0.093,0 0.093,0 0.185,0.092 l -0.185,0.195 0.093,1.322 c -0.093,0.092 -0.093,0.092 -0.093,0.184 v 6.689 c 0.185,1.516 0.943,2.551 3.104,2.643 4.436,0.092 8.205,0.092 10.182,0 0,2.264 -0.092,2.827 0,4.148 h -16.113 c -11.882,0 -18.295,0.093 -30.925,0.093 0,-1.414 0,-1.977 -0.092,-4.149 M 573.75,197.508 V -69.51 H -88.048 c 16.189,2.367 30.365,9.18 39.06,21.1 2.392,2.858 -0.476,6.689 -4.778,4.292 -62.588,-29.143 -119.439,85.041 -118.481,150.497 8.118,4.784 16.241,10.039 23.406,16.728 30.577,25.793 53.036,58.285 58.767,89.815 5.099,27.249 0.445,46.269 -10.284,58.11 l 59.127,-59.126 c 0.067,0.05 0.135,0.086 0.201,0.137 -2.414,-1.819 -4.832,-3.602 -7.223,-5.69 -8.176,-6.884 -15.495,-15.494 -21.521,-24.104 -6.455,-9.035 -9.897,-16.787 -14.631,-26.255 -3.013,-6.45 -6.889,-12.052 -14.206,-15.918 -0.859,-0.434 -1.288,-1.292 -0.43,-1.726 6.026,-4.734 4.734,-16.786 3.876,-24.104 -1.292,-12.053 -0.434,-23.671 3.013,-33.139 12.047,-32.714 53.8,-35.722 78.763,-17.644 17.215,12.052 26.688,33.138 26.688,54.659 0,1.291 -2.584,1.291 -3.013,0 C 7.702,104.777 -7.792,81.966 -25.441,78.09 c -30.988,-6.884 -31.417,24.103 -25.392,52.518 40.842,-41.686 117.601,45.777 79.437,88.101 0.009,-0.01 0.019,-0.018 0.028,-0.027 l 35.87,-35.86 c 0.263,0.372 0.551,0.74 0.827,1.11 0.002,-0.003 0.005,-0.003 0.007,-0.006 -0.417,-0.558 -0.847,-1.116 -1.24,-1.677 -6.455,-9.035 -9.902,-16.787 -14.636,-26.255 -3.014,-6.45 -6.884,-12.052 -14.203,-15.918 -0.857,-0.434 -1.292,-1.292 -0.429,-1.726 6.026,-4.734 4.734,-16.786 3.872,-24.104 -1.288,-12.053 -0.43,-23.671 3.013,-33.139 12.052,-32.714 53.805,-35.722 78.767,-17.644 17.215,12.052 26.684,33.138 26.684,54.659 0,1.291 -2.58,1.291 -3.013,0 -3.872,-18.937 -34.002,-55.951 -57.672,-33.573 -6.026,6.026 -8.181,15.495 -7.748,26.255 0.43,12.052 3.009,21.52 14.203,27.546 0.858,0.434 1.292,1.292 0.429,1.726 -9.039,7.318 -1.721,21.086 2.155,28.838 7.313,14.627 25.392,43.898 43.04,46.482 4.301,0.859 8.606,0 10.761,-3.876 7.313,-11.193 -8.611,-38.306 -24.534,-41.748 -6.026,-0.858 -10.331,2.584 -9.902,8.177 0,2.149 -2.15,2.149 -3.013,0.433 -11.618,-20.662 -4.734,-38.74 15.494,-38.74 21.092,0.434 37.015,17.644 43.904,36.58 5.22,19.779 1.26,34.501 -8.08,43.271 0.007,-0.006 0.016,-0.01 0.023,-0.017 L 194.745,188 188.068,162.888 c -2.584,-9.044 -6.456,-17.22 -16.787,-22.812 -1.292,-0.434 -1.721,-1.292 -0.862,-1.726 6.889,-5.593 6.889,-12.91 5.168,-21.086 l -6.456,-24.105 c -6.026,-21.953 -3.013,-40.89 20.658,-40.89 21.091,0 38.735,14.636 42.182,38.74 0.429,1.292 -1.726,1.292 -2.155,0 -10.331,-22.387 -27.546,-18.078 -21.091,2.15 l 6.889,26.254 c 2.584,7.319 6.455,13.769 15.494,18.937 1.292,0.434 1.292,1.292 0.429,1.726 -8.176,6.026 -6.455,14.626 -3.871,24.962 6.026,21.945 13.339,48.633 18.936,70.586 h 11.189 c 0.863,0 2.584,0.859 3.447,2.151 l 8.605,12.91 c 0.863,0.867 0.863,1.726 -0.429,1.726 h -18.077 c 3.024,11.384 5.815,21.836 8.581,32.184 h 57.477 L 437.204,164.901 c -0.314,-1.188 -0.723,-2.749 -1.202,-4.597 -2.584,-7.752 -6.46,-15.07 -15.928,-20.228 -1.292,-0.434 -1.292,-1.292 -0.433,-1.726 6.46,-5.168 6.46,-12.477 5.168,-20.228 -3.009,-10.761 -6.027,-21.521 -8.611,-32.281 -3.008,-10.326 -9.468,-20.662 -17.644,-26.687 -1.292,-0.425 -1.725,-1.717 -0.858,-1.717 h 60.685 c 0.858,0 1.292,1.292 0.433,1.717 -5.167,6.025 -6.025,16.361 -3.451,26.687 3.018,10.76 6.026,21.52 8.61,32.715 2.584,7.742 6.46,14.626 15.928,19.794 1.292,0.434 1.292,1.292 0.434,1.726 -6.46,5.158 -6.894,12.476 -5.168,20.228 l 3.442,12.477 c 9.469,14.636 21.954,25.829 26.688,25.829 9.468,0 -1.291,-19.804 -7.751,-30.564 -10.76,-19.794 -4.301,-34.864 16.361,-34.864 21.086,0 38.731,15.07 42.173,38.74 0,1.292 -1.716,1.292 -2.15,0 -3.442,-7.318 -7.743,-11.618 -11.618,-13.768 -4.735,-2.16 -8.611,-0.868 -10.327,3.442 -1.292,3.442 2.575,10.326 6.884,18.502 6.885,11.195 15.061,24.963 13.344,34.865 -0.411,2.773 -1.367,5 -2.71,6.79 0.002,-10e-4 0.004,-0.002 0.005,-0.004 z M 281.962,-26.49 c -0.563,0.185 -1.598,0.185 -1.598,0.185 -1.321,-0.092 -2.448,-1.127 -4.62,-5.747 -1.321,-2.919 -2.356,-5.654 0.287,-6.125 0,0 4.804,0 8.769,-0.103 3.196,0.287 1.782,3.401 1.126,5.378 -0.471,1.414 -2.079,6.033 -3.964,6.412 m 63.636,237.152 c -16.353,0 -38.306,-31.422 -49.495,-70.162 -11.19,-38.307 -6.889,-69.719 9.468,-69.719 16.357,0 38.306,31.412 49.495,69.719 11.194,38.74 6.889,70.162 -9.468,70.162 M 232.035,-19.606 c -3.308,-0.287 -4.619,-2.458 -4.906,-4.999 0,0 -0.379,-9.055 -0.185,-11.503 0,-2.172 0.943,-5.655 4.333,-5.941 4.528,0.194 8.205,7.17 8.103,12.066 0.287,3.493 -3.104,10.182 -7.345,10.377 M 1.247,211.954 c -17.22,-2.584 -32.28,-28.414 -39.599,-43.041 -1.721,-3.876 -4.733,-10.336 -6.888,-18.078 17.22,-42.182 81.346,68.003 46.487,61.119 m -217.449,25.808 c -13.854,-51.597 -21.977,-82.174 -34.879,-130.431 119.444,18.162 155.276,213.085 34.879,130.431 M 262.592,0 c 0.471,0 0.184,-0.184 0.747,-0.092 6.505,0.655 8.769,10.837 8.39,15.652 -0.277,4.712 -1.69,7.918 -3.678,9.895 -0.747,1.035 -2.735,2.069 -4.619,2.172 h -0.185 c -3.862,0 -8.481,-4.149 -9.147,-13.01 C 253.721,9.526 256.835,0.666 262.592,0 m -420.328,284.115 c 0.586,0.115 1.166,0.22 1.75,0.325 0.275,0.05 0.553,0.107 0.829,0.155 h -48.79 l -6.048,-22.464 c 14.665,9.481 29.73,16.18 44.09,20.082 2.76,0.75 5.472,1.371 8.169,1.902 m -130.13,-343.517 c -1.915,-3.35 -2.868,-7.17 -1.434,-9.557 0.173,-0.173 0.189,-0.364 0.216,-0.551 h 20.009 c 0.111,1.299 0.365,2.527 0.319,3.901 -0.482,11.943 -12.426,16.717 -19.11,6.207 m 63.065,146.677 c -10.992,-2.397 -21.978,-4.303 -33.446,-5.266 l -9.075,-34.397 c -3.345,-13.849 -5.255,-29.143 1.91,-34.398 1.434,-0.952 0.476,-1.905 -0.481,-2.387 -30.096,-0.481 -61.154,-33.445 -67.361,-64.021 -1.224,-6.169 -1.354,-11.47 -0.977,-16.316 h 41.299 c -13.91,8.811 -13.783,24.777 -5.448,35.43 6.689,8.594 14.812,12.415 22.458,12.415 6.208,0 12.421,-1.905 17.199,-5.726 12.897,-9.557 15.765,-25.322 10.51,-41.087 -0.124,-0.368 -0.307,-0.668 -0.435,-1.032 h 133.938 c -74.24,10.383 -100.635,89.619 -110.091,156.785 m -46.824,141.411 c 0.477,1.915 0.958,3.821 1.435,5.736 -23.412,-14.331 -56.375,-29.143 -83.608,-20.067 -5.116,1.673 -9.71,4.359 -13.721,7.722 v -0.237 l 74.3,-74.292 c -2.01,-7.575 11.484,43.415 21.594,81.138 m -45.865,10.51 c 11.548,-1.424 25.736,2.525 40.217,9.191 l -36.208,36.208 h -6.301 c -0.033,0 -0.062,-0.01 -0.094,-0.01 -0.075,0.014 -0.147,-0.002 -0.221,0.01 h -4.367 c -18.542,-2.667 -32.344,-40.54 6.974,-45.399 m 802.984,-40.586 9.043,32.705 c 0,0.167 -0.189,0.147 -0.27,0.251 l 0.213,0.033 14.015,-14.273 c 0.472,0.306 -15.554,-11.269 -23.001,-18.716"
       style="fill:#223b6d;fill-opacity:1;fill-rule:nonzero;stroke:none"
       transform="matrix(1.3333333,0,0,-1.3333333,529.1796,412.27507)"
       clip-path="url(#clipPath5)" />
  </g>
</svg>
